/* XPM */
static char *fa7512cd161f48e6eefa6248db6f831bm3g0obAqWOWXOkXV[] = {
/* columns rows colors chars-per-pixel */
"55 55 219 2 ",
"   c #6E721A",
".  c #72751B",
"X  c #78771E",
"o  c #75781E",
"O  c #7B7C1B",
"+  c #6F7324",
"@  c #737624",
"#  c #767923",
"$  c #7A7C22",
"%  c #74762C",
"&  c #76792C",
"*  c #7A7D2D",
"=  c #6C6C3E",
"-  c #737532",
";  c #767833",
":  c #7A7C33",
">  c #72723B",
",  c #77793A",
"<  c #787A3C",
"1  c #6D6C43",
"2  c #6D6A4D",
"3  c #706F4B",
"4  c #737343",
"5  c #777841",
"6  c #797A44",
"7  c #7B7C4B",
"8  c #78784F",
"9  c #6C6A52",
"0  c #716E54",
"q  c #706E5B",
"w  c #747253",
"e  c #7D7D52",
"r  c #77755E",
"t  c #78775C",
"y  c #7C7B5D",
"u  c #797765",
"i  c #7D7C64",
"p  c #7E7D6B",
"a  c #7F7E71",
"s  c #807F19",
"d  c #837F26",
"f  c #D84D03",
"g  c #DB5606",
"h  c #DF6809",
"j  c #E9790C",
"k  c #807F5D",
"l  c #807F63",
"z  c #807F6B",
"x  c #807F72",
"c  c #7F812E",
"v  c #7F8233",
"b  c #7F8049",
"n  c #898517",
"m  c #81801A",
"M  c #938C18",
"N  c #A69A11",
"B  c #AEA00F",
"V  c #BCA80D",
"C  c #B9A711",
"Z  c #888426",
"A  c #858128",
"S  c #928C20",
"D  c #9D8D2C",
"F  c #848335",
"G  c #9A9335",
"H  c #A2923B",
"J  c #BAA835",
"K  c #F68E02",
"L  c #F88F01",
"P  c #F28908",
"I  c #EE9603",
"U  c #EC9D07",
"Y  c #F69102",
"T  c #F99102",
"R  c #F49A03",
"E  c #F89B01",
"W  c #F5930A",
"Q  c #F6970B",
"!  c #F49514",
"~  c #F89813",
"^  c #F6991C",
"/  c #F99A1A",
"(  c #CCB20A",
")  c #DDB606",
"_  c #D3B40A",
"`  c #D7B808",
"'  c #D4B81D",
"]  c #EBA203",
"[  c #E6AC04",
"{  c #E9AD05",
"}  c #EEA308",
"|  c #ECAC08",
" . c #F6A302",
".. c #F9A301",
"X. c #F4AA05",
"o. c #F9AC01",
"O. c #F4A509",
"+. c #E3B305",
"@. c #E2BB05",
"#. c #ECB30A",
"$. c #E7BE08",
"%. c #EFBE0B",
"&. c #F2B306",
"*. c #FAB502",
"=. c #F6BA04",
"-. c #FBBB00",
";. c #F7BA0D",
":. c #F8A419",
">. c #F7BA15",
",. c #F59D23",
"<. c #F89E23",
"1. c #F79F2A",
"2. c #CBB226",
"3. c #C8B02F",
"4. c #D5B821",
"5. c #F9A124",
"6. c #F6A12C",
"7. c #F9A22B",
"8. c #FAB82A",
"9. c #F5A433",
"0. c #F9A432",
"q. c #F8A838",
"w. c #F9A93D",
"e. c #DDC006",
"r. c #E4C306",
"t. c #ECC708",
"y. c #F7C106",
"u. c #FAC300",
"i. c #F5CB03",
"p. c #FACA02",
"a. c #F4C408",
"s. c #F2CD09",
"d. c #F8D106",
"f. c #E7C412",
"g. c #FAC916",
"h. c #F1D51F",
"j. c #D9C631",
"k. c #F6CC29",
"l. c #E6C73A",
"z. c #F1CD31",
"x. c #F9D639",
"c. c #878744",
"v. c #8C8D53",
"b. c #81815B",
"n. c #978F52",
"m. c #A09755",
"M. c #B7A741",
"N. c #B6A154",
"B. c #828165",
"V. c #8A8762",
"C. c #83826C",
"Z. c #938D60",
"A. c #999264",
"S. c #96946C",
"D. c #838272",
"F. c #868579",
"G. c #88877A",
"H. c #8D8C78",
"J. c #B3B178",
"K. c #C7B04D",
"L. c #C9A958",
"P. c #F7AC43",
"I. c #F9AB43",
"U. c #F7AE48",
"Y. c #F9AE4C",
"T. c #F9B745",
"R. c #F9B14E",
"E. c #F9B354",
"W. c #F9B65B",
"Q. c #F9B859",
"!. c #DCB465",
"~. c #E4BB68",
"^. c #F8B760",
"/. c #FABA65",
"(. c #FABD6D",
"). c #FABF71",
"_. c #F9C64C",
"`. c #F5D746",
"'. c #F3DA4B",
"]. c #E8C754",
"[. c #CEC47C",
"{. c #EFD26A",
"}. c #F5C173",
"|. c #F9C375",
" X c #FACD73",
".X c #FAC47B",
"XX c #A29F82",
"oX c #BDBF9D",
"OX c #F6C580",
"+X c #FAC782",
"@X c #FAC885",
"#X c #FACB8B",
"$X c #FAD68B",
"%X c #F7CE93",
"&X c #FACD92",
"*X c #F8D297",
"=X c #FAD39C",
"-X c #C8C6A7",
";X c #D4D2AF",
":X c #FBD5A3",
">X c #F8D9A6",
",X c #FBD9AC",
"<X c #E8DBB4",
"1X c #FADDB3",
"2X c #FCDFB9",
"3X c #FAE6B3",
"4X c #FBE1BE",
"5X c #E2D8C1",
"6X c #FBE4C3",
"7X c #FBE6CA",
"8X c #FBE9CC",
"9X c #F4EAD3",
"0X c #FBECD6",
"qX c #FCEEDB",
"wX c #FCF0DD",
"eX c #FCF2E4",
"rX c #F7F5EB",
"tX c #FCF5EB",
"yX c #FCF9F3",
/* pixels */
". . . . . . . . . . . . . . . . . . . . . . . . . . . . . . . . . . . . . . . . . . . . . . . . . . . . . . . ",
". . . . . . . . . . . . . . . . . . . . . . . . . . . . . . . . . . . . . . . . . . . . . . . . . . . . . . . ",
". . . . . . . $ $ $ . . . . . . . . . . . . . . . . . . . . . . . . .     . . . . . o . . . . . . . . . . . . ",
". . . . . . . o $ o . . . . . . . . . . . . . . . . . . . . @ . . . . . . . . . . . . . . $ $ . . . o . . . . ",
". . . . . . . . . . . . . . . . . . . . . . . . . . . . . . . . . . . . . . $ : . . . . @ c.c.@ . .   . . @ . ",
". . . . . . . . . . . . . . . . . . . . . . . . . $ o . . . . . . . . . . . . @ . . . . . @ @ . . . . . @ c.@ ",
". . . . . . . . . . . . . . . . . . . . . . . . . . . . . . . . . . . . . . . . . . . . . . . . . . . . . @ . ",
". . . . . . . . . . . . . . . . . . . . . . . . . . . . . . . . . . . . . . . . . . . . . . . . . . . . . . . ",
". . . . . . . . . . . . . . . . . . . . . . . . . . . . . . . . . . . . . . . o . . . . . . $ $ . . . . . . . ",
". . o . . . . . . . . . . . . . . .   . . . . . . . . . . . $ . . . . . . . o : $ . . . . X D Z o . . . . . . ",
". o . . . . . . . . . . . . . . . . . . .     . . . . . . : v.# . . . . . . . * o . . . . . X o . o . . . . . ",
". . . . . . . . . . . . . . . . . . . . . . . . o $ d A F S.A.# . . . . . . . . . . . . . . . . . . . . . . . ",
". . . . . . . . o o . . . . . . . . . . . $ H L.~.}.|.|.|.}.~.K.G o . o . . . . . . o . . . . . . . . . . . . ",
". . . . . . . . . . . . . . . . . . . c J.<X7X6X>XOX^.E.U.P.P.T._.].M.$ . . . . . . . . . . . . . . . . . . . ",
". . . . . . . . . . . . . . . . . . J.rXyXyXtXeX0X7X%X9.Y Y Y Y Q :.8.l.D * . . . . . . . . . . . . . . . . . ",
". . . . . . . . . . . . . . . . # ;XyXyXyXeXqX8X6X1X,X*X9.K Y Y Y Y  .o.y.3.# . . . . . . . . . . . . . . o . ",
". . . .     . . . . . . . . . $ ;XyXyXtXeX0X7X4X1X>X=X&X.X,.K Y Y T T ..*.u.( o . . . . . # . . . . . . . . . ",
". . . . . . . . . . . .   . o -XyXyXtXqX0X6X2X,X:X*X#X+X|.W.W Y T T T E  .*.u.( $ . . . & v.# . . . . . . . . ",
". . . . . . . . $ o . . . . N.tXyXtXqX8X6X1X,X:X&X#X.X|./.W.<.K T T Y T E o.-.p.N . . . * # . . . . . . . . . ",
". . . . . . . . o . . . . A >XtXeXqX8X4X1X,X=X&X@X.X)./.W.R.0.K T T Y Y R ..*.u.t.m . . . . . . . . . . . . . ",
". . . . . . . . . . . . . L.4XeX0X7X4X,X:X=X&X@X.X(./.E.Y.I.0.Y T T T Y Y E o.u.p.V . . . . . . . . . . . . . ",
". o . . . . . . . . . . A }.6X0X6X2X,X:X*X#X+X|.(.W.E.Y.w.0.7.Y T T T Y Y E o.-.p.i.O . . . . . . . . . . . . ",
". . . . . . . . o . . . N.|.1X6X1X,X:X&X#X.X)./.W.R.P.w.0.<.^ Y T T T T Y Y ..-.u.p.N . . . . . . . . . . . . ",
". . . . . . . . . . . . !.(.@X1X,X=X&X@X.X(./.W.Y.I.9.0.<.^ ! K T T T T Y T ..*.u.p.( . . . . . . . . . . $ . ",
". . . . . . . . . . o $ }./.P.:X*X&X@X.X(./.E.Y.I.0.7.5./ ~ W T T T T L Y Y ..*.u.i.r.  . . . . . . . . . : . ",
". . . . . . . . . . . A *X|.! }.#X+X|./.W.E.U.w.0.5.5.j ~ W Y L T T T L Y Y ..*.g.g.r.o . . . . . . . . . . . ",
". @ @ .   . . @ @ . . c.0X=X0.<..X)./.W.R.I.q.0.1.<.! g W T K L T T T L Y Y ..;.k.x.f.O . . . . . . . . . . . ",
"5 6 5 @ , 5 ; 5 6 5 % A.wX=Xq.W 1.W.E.Y.I.0.7.<.^ h g f f h K L T T T T Y T ..;.k.`.j.m . . . . . . . . . . . ",
"z p i ; y p p u p i 6 H.0X=Xq.W Y ^ I.w.0.7.<./ ~ Q f f g E Y L T T T T Y E o.>.k.`.l.O . . . . . . . . . . . ",
"x a i ; u p p p a p 7 C.9X:XU.Q K K Y / <.^ ~ Q W P g j g K T T T T T Y Y E o.g.x.'.j.. . . $ . . . . . .   . ",
"u p u % r u w u p u , u 5X1XW.^ Y K L L K K K K K K T T Y P Y T T T T Y T ..*.g.x.'.' @ @ & @ @ @ @ @ . @ @ @ ",
"F.F.C.; i a D.a a p 7 C.-X6X|.6.W L T T Y Y Y L K K L K L K Y T T Y Y Y R o.=.g.x.h.J l 7 B.i i z 0 y % y i y ",
"G.F.C.; i x F.x x p 7 C.XX8X#XP.! K L T T T T T T T Y Y T Y Y Y Y Y Y R  .*.u.p.d.s.A.C.7 z x x C.p u ; i p , ",
"F.F.C.; i x D.D.D.z 7 b.D.<X>XQ.:.T L T T T T T Y Y Y Y Y Y Y Y Y Y Y R X.=.i.p.d.' C.8 6 i a x D.p 4 % p D.p ",
"z D.p ; p p 7 D.F.C., i b m.3X Xq.Q T T T T Y Y Y Y Y Y Y Y Y Y Y Y R O.=.y.i.i.s.G p i ; 7 p p e u y % B.F.C.",
"x x i ; i p 7 D.F.D.7 p b e [.$XT.:.Y Y Y Y Y Y Y Y K K K Y Y Y R R X.&.a.a.s.s.3.b.p p 6 i a x z p y % < C.F.",
"p p y % u p p C.D.C.7 i p 7 $ {.{.8.O.R Y Y Y Y Y K Y Y Y W I U } | &.%.t.t.t.4.C.y p i 6 y i p p i & @ y 5 C.",
"2 1 ; @ 2 9 9 > w w - 2 2 % . Z {._.>.O. .R R R Y I I I I U U } { #.$.$.r.r.` 6 3 % = % @ # % 1 % @ . @ 4 @ @ ",
"p p y % r u p p p i 6 p p e @ . Z ].z.>.&.X.O.} ] ] ] ] ] [ { +.@.@.@.@.e.( s @ @ . . . . . . . . . . . @ . . ",
"D.x p : u p a a x i , p x y @ . @ V.K.k.%.%.#.#.{ { [ [ +.+.) ) ` ` ` ` B O . . . . . . . . . . . X . . . . . ",
"D.x i ; i p q p z 7 5 i p e @ . @ i p m.' f.$.@.@.) ) ) ` _ _ _ ( ( V n . . @ @ @ . . . . . . . . . . . . . . ",
"x x i ; C.F.C.p x i & 7 u 6 @ . @ y p i ; n.J _ ` ` _ ( 4.2.2.C N n . . . @ 5 i y @ . . . . . . . . . . . . . ",
"D.x i ; C.F.G.i p i : u p e @ . @ C.x p ; i z k Z n M S n.Z.V.# . . . . . @ i x i @ . . . . . . . . . . . . . ",
"p p y % B.D.D.y ; y 5 y u 7 @ . @ B.p y & i p y @ . . @ B.p i @ . . . . . @ y p y @ . . . . . . $ $ . . . . . ",
"; > > @ , , ; > % - % > > % . . . ; > > @ > > > . . . . @ - % . . . . . . . - - & @ @ @ . . . . . . . . @ @ @ ",
"u 8 y % y p C.C.p i 6 i i 7 @ . @ y u y - y u y @ . . . . . . . . . . . . . . . # e i i < . . . . . . @ y i p ",
"p p u % i D.F.D.x p 7 z i > . . . - 0 y - y p u @ . . . . . $ . . . . . . . . . @ e z i < . . . . . . @ i D.D.",
"i D.z % r F.G.F.F.D.6 C., @ . . @ w p 4 % 5 D.C.@ . . . . . . @ @ @ . . @ @ . . @ b.B.> @ o . . . . . @ l D.H.",
", p i ; i D.F.F.F.D.7 p i 7 @ . @ i p y ; C.F.C.@ . . . . . @ y i y @ & b.B.@ . c -XF . . . . . . . . . @ v oX",
"p a i % y p F.F.F.C.7 p p e @ . @ z p u ; C.G.C.@ . . . . . @ i a p ; b.5 w @ o o c o . . . . . . . . . . . c ",
"p p y @ @ > B.C.C.b % t i 7 @ . @ y y 5 % B.C.B.@ . . . . . . ; i i ; B.B.B.@ . . . . . . . . . . . . . . . . ",
"< < % . . . @ @ @ @ . - % % . . . @ @ @ @ , < , . . . . @ % @ % , , @ , < ; @ @ % . . . . . . . . . . . . . . ",
"D.B.>   . . . . .   @ 1 7 7 @ . . .   . @ y p y @ . . @ y u i i p i ; i p C.i i y @ . . . . . . . . . . . . . ",
"C.7 +   . . . . . . @ t i e @ . . . . . . > i u @ . . @ u p p p x p ; i x D.x x p @ . . . . . . . . . . . . . ",
"@ @ . . . o . . . . . % i = . . . . . . . . % = @ . . @ p p - 3 D.C.% ; z 0 D.F.C.@ . . . . . . . . . . . . . "
};
