/* XPM */
static char *_38f7cf5a45f4e38f6c54bc282f91025QyJNLxYgGj8j3tln[] = {
/* columns rows colors chars-per-pixel */
"55 55 254 2 ",
"   c #130604",
".  c #140A06",
"X  c #170A07",
"o  c #1B0B06",
"O  c #110E0A",
"+  c #1B0D09",
"@  c #1B130B",
"#  c #230D07",
"$  c #241106",
"%  c #23140A",
"&  c #2B140A",
"*  c #29180A",
"=  c #341B0C",
"-  c #38190A",
";  c #2C1C11",
":  c #341D11",
">  c #05290D",
",  c #0D2C11",
"<  c #063815",
"1  c #153916",
"2  c #2B230D",
"3  c #38230D",
"4  c #2B380F",
"5  c #282715",
"6  c #392815",
"7  c #2A3915",
"8  c #383618",
"9  c #2F3523",
"0  c #451D0C",
"q  c #49220D",
"w  c #502C0D",
"e  c #462815",
"r  c #4B2C14",
"t  c #532B12",
"y  c #5B2C13",
"u  c #483818",
"i  c #583618",
"p  c #663918",
"a  c #743914",
"s  c #4B3923",
"d  c #563D24",
"f  c #653D21",
"g  c #733C20",
"h  c #004C0E",
"j  c #064818",
"k  c #19471A",
"l  c #03591A",
"z  c #16551C",
"x  c #294618",
"c  c #384719",
"v  c #364E1A",
"b  c #27561C",
"n  c #08651C",
"m  c #0E731E",
"M  c #2A651D",
"N  c #075723",
"B  c #165729",
"V  c #295626",
"C  c #3A5A26",
"Z  c #335129",
"A  c #096A24",
"S  c #1A6827",
"D  c #077824",
"F  c #167926",
"G  c #176C36",
"H  c #256725",
"J  c #396628",
"K  c #307431",
"L  c #47461B",
"P  c #59471B",
"I  c #49581B",
"U  c #59571B",
"Y  c #69441C",
"T  c #76471B",
"R  c #67591C",
"E  c #7E531E",
"W  c #696A1C",
"Q  c #6E721C",
"!  c #72751B",
"~  c #75781E",
"^  c #494924",
"/  c #584725",
"(  c #485827",
")  c #595929",
"_  c #515539",
"`  c #684925",
"'  c #774B25",
"]  c #685728",
"[  c #7A5627",
"{  c #644E32",
"}  c #6B5837",
"|  c #785B36",
" . c #496429",
".. c #586428",
"X. c #5B6633",
"o. c #4C7433",
"O. c #597539",
"+. c #666625",
"@. c #766827",
"#. c #6B7429",
"$. c #737624",
"%. c #767921",
"&. c #797B23",
"*. c #74772D",
"=. c #7A7B29",
"-. c #686738",
";. c #7A6536",
":. c #677A38",
">. c #797835",
",. c #73733C",
"<. c #217847",
"1. c #495C43",
"2. c #546E4B",
"3. c #797949",
"4. c #6F6C50",
"5. c #7A795C",
"6. c #747465",
"7. c #7D7C65",
"8. c #7E7D6A",
"9. c #7F7F71",
"0. c #864F1C",
"q. c #865A28",
"w. c #8E5B2D",
"e. c #89642B",
"r. c #93672E",
"t. c #8A782E",
"y. c #876A39",
"u. c #966A35",
"i. c #887737",
"p. c #977438",
"a. c #A57A38",
"s. c #B07630",
"d. c #897745",
"f. c #89754F",
"g. c #977B44",
"h. c #A27D4D",
"j. c #817E68",
"k. c #9F7860",
"l. c #807F72",
"z. c #088729",
"x. c #0D912E",
"c. c #2F8734",
"v. c #259838",
"b. c #369737",
"n. c #07AA3C",
"m. c #4F8C35",
"M. c #4A9439",
"N. c #66883A",
"B. c #768833",
"V. c #639F32",
"C. c #358D4B",
"Z. c #0CB74B",
"A. c #3DA043",
"S. c #539350",
"D. c #798B4A",
"F. c #6C974C",
"G. c #4EA74C",
"H. c #71A94B",
"J. c #479765",
"K. c #4FAD72",
"L. c #76AF6A",
"P. c #16CD50",
"I. c #23CC44",
"U. c #32CB70",
"Y. c #60D360",
"T. c #46EC70",
"R. c #878537",
"E. c #918437",
"W. c #AE843D",
"Q. c #C68E3D",
"!. c #888745",
"~. c #958648",
"^. c #979549",
"/. c #8A8756",
"(. c #998A58",
"). c #879751",
"_. c #989757",
"`. c #A98847",
"'. c #B48C47",
"]. c #AB904F",
"[. c #B8944A",
"{. c #A78B55",
"}. c #A89659",
"|. c #B89958",
" X c #86AA55",
".X c #A8A859",
"XX c #B9A45C",
"oX c #818367",
"OX c #83826C",
"+X c #949468",
"@X c #828172",
"#X c #868579",
"$X c #8A8A78",
"%X c #A79665",
"&X c #B19B6A",
"*X c #9AAC69",
"=X c #A9A867",
"-X c #B9A76A",
";X c #BAAC74",
":X c #B4B473",
">X c #C39848",
",X c #C29B52",
"<X c #CEAB56",
"1X c #C4A459",
"2X c #C49F67",
"3X c #C5A865",
"4X c #C8B268",
"5X c #D6B768",
"6X c #C0AD73",
"7X c #C9B779",
"8X c #D3BD76",
"9X c #94C854",
"0X c #95DD73",
"qX c #A9CB70",
"wX c #D0C574",
"eX c #D8C47A",
"rX c #E6CD7A",
"tX c #59AF8A",
"yX c #70B88C",
"uX c #55D788",
"iX c #71C795",
"pX c #54EA8E",
"aX c #71ED96",
"sX c #7AD7A7",
"dX c #6EEEA7",
"fX c #81BD90",
"gX c #BAB289",
"hX c #C8BB85",
"jX c #C8B98A",
"kX c #8CCD8D",
"lX c #ACD48D",
"zX c #9DE986",
"xX c #AEE690",
"cX c #90D4B2",
"vX c #92E8B1",
"bX c #B1F2B4",
"nX c #CAC488",
"mX c #D9C887",
"MX c #D3D48C",
"NX c #CDC697",
"BX c #D8C997",
"VX c #E3CE8E",
"CX c #E5D48B",
"ZX c #E3D798",
"AX c #D6CFA9",
"SX c #E4DBA8",
"DX c #E6D9B1",
"FX c #EFEAA0",
"GX c #EDE6AF",
"HX c #9CF8C2",
"JX c #A7EEC7",
"KX c #CEF7CC",
"LX c #F1EECC",
"PX c #D6FDE0",
/* pixels */
"! ! ! ! ! ! ! ! ! ! ! ! ! ! ! ! ! ! ! ! ! ! ! i.! ! ! ! ! ! ! R.! ! ! ! ! ! ! ! ! ! ! ! ! ! ! ! ! ! ! ! ! ! ! ",
"! ! ! ! ! ! ! ! ! ! ! ! ! ! ! ! ! ! ! ! ! ! ! ~.t.! ! ! ! ! ^.W ! ! ! ! ! ! ! ! ! ! ! ! ! ! ! ! ! ! ! ! ! ! ! ",
"! ! ! ! ! ! ! %.&.&.! ! ! ! ! ! ! ! ! ! ! ! ! R.7X! ! %.! ! NXR ! ! ! Q Q ! ! ! ! ! ~ ! ! ! ! ! ! ! ! ! ! ! ! ",
"! ! ! ! ! ! ! ~ &.~ R.!.&.! ! ! ! ! ! ! ! ! ! =.].`.-XnX^.:Xy.! ! ! ! ! ! ! ! ! ! ! %.@.%.%.%.! ! ! ~ ! ! ! ! ",
"! ! ! ! ! ! ! ! ! ! E.! R.~ ! ! ! ! ! ! =..XgXnXBX`.VXZX|.gX.X}..XE.%.! ! ! %.>.! ! >.Q R.!.!.%.! ! Q ! ! %.! ",
"! ! ! ! ! ! ! ! R..X&.! ^.! ! ! ! =.=XNXSX8X5X5XeX|.BXMX'.d q 0.g.{.-X}.^.%.! $.! &.E.! R.~.@.! ! ! ! ! %.!.%.",
"! ! ! ! ! =.! =.ZXVX,X=.=XR.%.R.nXSXmXeXZXBX3Xh.hX;XbXdXH.r 0 e d.XX-X}.`.|.}.%.~ R.^.R.ZX[.q.W ! $.! ! ! %.! ",
"! ! ! ! ! ^.! ! p.{.8X'.4XmX=XZXeXZXCX|.e.;.(.-XmX`.-.b ;.& i s u u / y.|.}.`.3X`.eX4XXXa.T = ! ! i.! ! ! ! ! ",
"! ! ! ! ! ^.=.! @.{ ].1XmX<X5X>XmXp.` }.1X7X<X|.5Xg.y.-X= $ q & ` g.g.g.d { }.|.eXrXZXr.' / R &.~ ~.! ! ! ! ! ",
"! ! ~ ! ! ! ~.!.t.] ;X8Xp.y.W.a.[ +X;X7XwX1XeXmX-X[ hXBXY $ r ` ;.p.'.6X`.~.[ 1XCXeXy g.y.8 @.+.+.! ! ! ! ! ! ",
"! ~ ! ! ! ! Q ! >.;.e q.W.r.q.'.h.'.7XhXDXLXBX;X).X.~.d.L V O.~.|.8X1Xg.y.s.8XrXeX{.r.q.& 5 W Q Q ~ ! ! ! ! ! ",
"! ! ! ! ! ! ! ! =.g.i = ` '.`.q.r.r.LXAX=X:.O.x c c ( o.v x x x K  .!.|.1XW.8X8XGXu.i #   2 Q ! ! ! ! ! ! ! ! ",
"! ! ! ! ! ! ! ! NX|.` q & [ eX5X| NX_.O.v L L L L c c 4 7 x c c c L c C >.1Xp.CX3X0 #     X u ! ! ! ! ! ! ! ! ",
"! ! ! ! ! ! ! :XSXmXp.0.i 3 a.[.e.X.c L L I v k B 1 +.I 4 j S z b C u u c ) 8X1Xp % # # o & = ] ! ! ! ! ! ! ! ",
"! ! ! ! ! ! ^.SXCXhXP T p 3 p ` ^ L u u x 1 > N G L.J B.z S.iXJ.j < k L i / e.i &   $ $   r t a $.! ! ! ! ! ! ",
"! ! ! ! ! ! AXnXBXP (.| q.gX..C ( 8 8 U c O.sXkXK.J.D.S.F.< < J.vX<.).@.[ P ) ( 5 $ X # X + T i [ ! ! ! ! ~ ! ",
"! ! ! ! Q =XmXZXy.{.mXeXLX/. .L c 1 c 7 o.F.j V :.).).XXD.:. .k <.KXb :.D.1 L u 8 / t + r t i T q.@.! ! ! ! ! ",
"! ! ! ! =.SX8X%Xd.XXeXLX-XO.U L 1 > I C 2._.=XAXAXAXeX;X-XXX|.|.E.D.D.C. XK.< L u ^ [ t i ' / T p q.W ! ! ! ! ",
"! ! ! ! :X3XmX| -X}.nXAX:.U U 1 j tXsXS.XXNXAX-Xd.-./ ^ ) -.y.`.].p.e.O.j tXC., P / ] [ e i Y [ T ' ] ! ! ! ! ",
"! ! ! ! eX|.{.d.W.1XGX>.( P x G sX<.z =XNXgX/.^ C V K c.K J v ) ;.p.(.y.v N vX< 1 R ` e.i i T ;.[ r ' Q ! ! ! ",
"! ! ! ^.|.wX/ d.'.mX-X( u L U D.Z 1 =XjX%XL Z K b.v.F F S F v.c.( ] 3.(.@.k iXyXD.i.[ [ [ r [ r ` i ' R ! ! ! ",
"! ~ ! =X|.4X| XXXXGX-.L 8 L J H :.!.jX&X/ V m.F h h l F A l h A A.J ] ;X/.+.fXM.o. .E [ r.r T i [ q.f Y ! ! ! ",
"! ! ~ 6X].{.g.|.|.7X^ u 7 v A.C.i.&XgX-.v c.n B S.lXMXqX9X9XA.n N c.-.4.f.3./.c.o. X^ q.r.T q T r.e.y ` Q ! ! ",
"! ! =.}.1X` a.>X5X(.L u 1 J.F.C >.hXg.L o.n S lXMXm.z.D D z.M.H.A N b.) ~.} L N.*XL., [ e.e.e Y T w.t ' W %.! ",
"=XB.E.1X3X|.mX-XeX] u L N cXj 1 }.}.] J c.h L.qXx.n.uXvXaXU.z.M.V.N x.B.~.4.8 B < sX< ;.e.a.t d.a.q.' [ +.B.~.",
"R +X;XrXSXFXFXrX5Xu u 8 K.G > ( ;X{.^ S.j n lXx.Z.bXY.I.I.0XuXz.H.F n H.(.f./ 1 j JXj ) e.'.y.,X>X`.r.w.(./.P ",
"! $.` {.7X;X`.1X<X] u x L.:. .O.&X%X( S < M. Xx.vXY.pXbXaXn.zXZ.b.m.l G._.(.L 7 J.)...d.q.1X1XrX].y.p p = Q ! ",
"3.~.4Xs.xXvXO.e.<Xu.L L K ( N.!.-X(.) H j S.M.Z.xXP.KXbXKXT.Y.U.x. Xl b._.{.s c G.o.x 4Xa.5XQ.[.lXpXS y q P ! ",
"l.;.r.0.H D Z i i / L L 1  .F.>.%Xd.( K j m.c.Z.zXP.KXJXPXT.0XU.x.N.l M.6Xg.8 x N.H S.R.a.q.T a C D k f & u ! ",
"l.4.q 0 ` _ { * 2 ^ 6 x ^ *XC...f.f.-.K h K M.n.zXI.T.bXaXP.0XP.b.m.l  XwXp.8 V k F.kXN.u.[ - q q 8 e 5 o ( ! ",
"7.$X%Xf.: ; * $ % 8 u 7 > iXN C ;.~.,.N.j m .Xz.pX0XY.P.T.xXuXn.H.F n wX;X[ 8 z < iXuXF.a.4Xe - = ; : ` ] $.$.",
"+X+X} = o   # #   r u u > uXj C.P d.,.=.H l m.b.n.pXxXGXxXuXZ.v. XA H.wXd.u L k G HXU.^.>X8X$ = & o + X _ | } ",
"4.#X5.0         o Y i i , kX-.L.u ) d./.V.j m H.c.x.Z.P.Z.n.v.9Xv.S wX|.[ 6 U H vXdXG 5X4X-X* X       X 4.8.] ",
"#X#X7.t $ X   o + p ] ' L J o.G.J u ;.d.!.m.j m V.V.z.D z.G.zXb.l *X7X{.P u  .K F.S.D.>XZXy.% + o X X + 5.@X8.",
"j.l.7.r & & & o & w e.[ ' X.7 F.K.x u ] ~.~.N.z n A.L.kXkXK.A H *XeX6X` u #. .H Y.H.W.wXZXw @ # - d   * oX#XOX",
"l.l.7.L 0 w & t y 0 q.q.[ ] /.S.cXz 4 6 ] ;.6X.XN.K l l n C. XCXBX%X} 6 ] V 7 N. Xt.[.ZX}.3 - r i e o u 3.OX#X",
"8.8.5.) q y - a p = y u.r.[ , < JXA k L u ^ !.}.=X-X:XwXqXeXhXhX(./ u ] J > G iXK -XrXSXP % = i | & e ) 5.3.OX",
"4.4.>.#.i e p r { ` q T p.u.} > K.yX< V 4 6 3 P -.f.}.%X{.y.] ` u / i.m.C.cXyXj _.8XGX(.3 = 3 r ` o r $.3.$.$.",
"8.8.5.*.{ f p t p i w q r.p.u.] j vX+X . .x 7 7 8 6 6 u 8 8 8 8 ) ..+.I N.B , /.eXFXNXu 3 * - / = - U ! $.! ! ",
"@Xl.8.>.4.p d ' p w.y e w a.a.u.) G X.#.z m.j J O.) X.-.2.:.F.o.V v k ;.C 8 3.8XSXDXY * * e t } + t W ! ! ! ! ",
"@Xl.7.>.7.{ y t ' r Y p.f p |.4X'.;.~.b S.fXtX< < k J *.N.j > < j 2. .J }.~.eXeXNX' u s * $ } & 6 P ! ! ! ! ! ",
"l.l.7.>.OX8.f i Y [ h.W.{.i 4X>Xe.e.u.{.c j iXcXB > k  .M F.cXsXyXJ.( }.3X3X4X[.e.& e.| p / i # t Q ! ! ! ! ! ",
"@Xl.8.>.OX#X4.` e q.'.r.'.VXmXT 6 r.p.r.y.( 1 C.cXyXB U 2.x j < 1 _ %X3XmXGX;.E 3X' p T Y | % t W ! ! ! ! ! ! ",
"8.8.5.*.oX@X@X{ f ' <X<XmX{.i %   r `.].`.u.{.| 3.F._.}.d.X.3.i.7X|.mXSXDXd.* 2 p w.3Xa r.u u ) &.&.! ! ! ! ! ",
"*.,.,.$.,.3.>.,./ s.<X{.r.f @ X %   & ` ].1X|.`.{.].,X<Xp.'.1X3XVXGXAX(.i * e & & ' p k.p f ] ! ! ! ! ! $.$.$.",
"7.3.5.*.7.8.OX$X5.u.] q k.` + % + * X + & i y.|.eXZXeX[.w.CXZXhX%X;.r 2 @ & 6 6 = p.g.p e q U %.$.! ! $.5.7.8.",
"8.8.7.*.7.@X4.@XOX].f ' } ; 5 @   = e e & + * 3 q.[.[.p.p ' i 3 2 % * * % = % 6 : : i q 6 Y *.>.+.$.! $.7.@X@X",
"7.@Xj.*.6.j.#X#XgX2Xg ) , 9 O   X $ * - 3 - - e q.>X|.a.T y q % * * % = = * 6 6 % 6 , / r p p.! ! >.! $.j.@X$X",
">.8.8.*.7.j.#Xj.3Xu.e 1.9 @ @   @ r u i ` e w t a 0.kXdXv 0 & & & % = f d | e # 6 9 8 ) 8 q.u.R ! >.! ! $.B.gX",
"8.9.7.*.5.7.#X6.& r -.8.2._ 5 X   o * d ` / 6 i T y F z.k 0 e e X s } } e % ; i L ..U ! +./ ; ) ! Q ! ! ! ! B.",
"8.8.5.$.$.,.oXOX5.-.+.Z 1.3.$.I 5 @ % + + * d i t - 5 1 8 6 @ 5 s 6 % + : r P ..! ! ..W W #.+.! ! ! ! ! ! ! ! ",
">.>.*.! ! ! $.$.$.$.U Z #.*.! ! ! ..L 5 ; 6 % 9 6 $ * 6 5 @ 5 9 @ ; e u ) -.*.$.*.! +.W +.! ! ! ! ! ! ! ! ! ! ",
"@XoX,.Q ! ! ! ! ! Q $.4.3.3.$.! ! ! Q Q +._ _ ^ u L % + 5 9 5 8 / _ -.7.8.OX7.7.5.$.! W Q ! ! ! ! ! ! ! ! ! ! ",
"OX3.#.Q ! ! ! ! ! ! $.5.7.3.$.! ! ! ! ! ! ,.7.7./ Q I 9 1.6._ 8.l.8.>.7.9.@Xl.l.8.$.! ! ! ! ! ! ! ! ! ! ! ! ! ",
"$.$.! ! ! ~ ! ! ! ! ! *.7.,.! ! ! ! ! ! ! ! *.-.+.! ! $.8.8.) 2.@XOX*.>.j.4.@X#XOX$.! ! ! ! ! ! ! ! ! ! ! ! ! "
};
