/* XPM */
static char *_7cd70d14d724c82fbb49713df92be1aQjDG2pf167f2738m[] = {
/* columns rows colors chars-per-pixel */
"55 55 256 2 ",
"   c #1D1B08",
".  c #300E05",
"X  c #271908",
"o  c #391908",
"O  c #062A0D",
"+  c #1B240A",
"@  c #0B350E",
"#  c #163A0C",
"$  c #0A3A13",
"%  c #163B11",
"&  c #25250A",
"*  c #37250B",
"=  c #24380D",
"-  c #283C13",
";  c #363210",
":  c #373614",
">  c #451B08",
",  c #541E08",
"<  c #411E11",
"1  c #49270C",
"2  c #57250A",
"3  c #5C2C0C",
"4  c #53350F",
"5  c #502C10",
"6  c #493515",
"7  c #5A3714",
"8  c #66290B",
"9  c #6D2C0E",
"0  c #69330B",
"q  c #77380E",
"w  c #673914",
"e  c #773914",
"r  c #603F21",
"t  c #13430D",
"y  c #0C4616",
"u  c #1B4313",
"i  c #184917",
"p  c #0B551A",
"a  c #175819",
"s  c #2A440E",
"d  c #284915",
"f  c #364919",
"g  c #265719",
"h  c #36591B",
"j  c #16661E",
"k  c #29651C",
"l  c #35661C",
"z  c #33741C",
"x  c #155424",
"c  c #324A25",
"v  c #275923",
"b  c #395B23",
"n  c #1B6924",
"m  c #0B7328",
"M  c #1C7626",
"N  c #2C6526",
"B  c #396626",
"V  c #2A7727",
"C  c #3A7527",
"Z  c #326E36",
"A  c #4E4B0E",
"S  c #494817",
"D  c #584715",
"F  c #48551B",
"G  c #5C5518",
"H  c #77410E",
"J  c #654619",
"K  c #774619",
"L  c #6A581A",
"P  c #72551B",
"I  c #4B6B1E",
"U  c #6C691B",
"Y  c #766B1C",
"T  c #6D721B",
"R  c #72751B",
"E  c #76771E",
"W  c #524C24",
"Q  c #475825",
"!  c #575A25",
"~  c #694923",
"^  c #685925",
"/  c #795826",
"(  c #6F5331",
")  c #476629",
"_  c #566827",
"`  c #48772A",
"'  c #52732E",
"]  c #576833",
"[  c #4B7638",
"{  c #557936",
"}  c #6A6528",
"|  c #756726",
" . c #737624",
".. c #797A24",
"X. c #74762C",
"o. c #6B6E30",
"O. c #687635",
"+. c #757638",
"@. c #3A7B45",
"#. c #5C6C48",
"$. c #6E6D49",
"%. c #7A7B49",
"&. c #79795B",
"*. c #797762",
"=. c #7D7C65",
"-. c #7E7D6A",
";. c #7F7F71",
":. c #82390C",
">. c #833D14",
",. c #90410C",
"<. c #874818",
"1. c #924B17",
"2. c #89551D",
"3. c #98541B",
"4. c #A8581C",
"5. c #8F671E",
"6. c #B3641E",
"7. c #8D4C23",
"8. c #885625",
"9. c #975A26",
"0. c #A45C26",
"q. c #876627",
"w. c #996729",
"e. c #86742A",
"r. c #99742C",
"t. c #8B6735",
"y. c #986833",
"u. c #897C39",
"i. c #987936",
"p. c #A76628",
"a. c #B26B27",
"s. c #A8742A",
"d. c #B7742B",
"f. c #A86C35",
"g. c #B46E32",
"h. c #A97638",
"j. c #B77937",
"k. c #C15D18",
"l. c #C37628",
"z. c #C57B36",
"x. c #8F7748",
"c. c #AD7942",
"v. c #837E65",
"b. c #817F71",
"n. c #16902E",
"m. c #2D8C2E",
"M. c #368629",
"N. c #27992B",
"B. c #13A73A",
"V. c #33AE34",
"C. c #478737",
"Z. c #588536",
"A. c #508F30",
"S. c #6E8C30",
"D. c #65863C",
"F. c #7A873B",
"G. c #4EAD34",
"H. c #57B839",
"J. c #6BAB36",
"K. c #33C638",
"L. c #4FCC3C",
"P. c #71C23A",
"I. c #089A44",
"U. c #139544",
"Y. c #34934D",
"T. c #12B24D",
"R. c #33AF4B",
"E. c #578747",
"W. c #4D944E",
"Q. c #688748",
"!. c #719550",
"~. c #50A94B",
"^. c #71A648",
"/. c #6CB04C",
"(. c #5A9E66",
"). c #71B46D",
"_. c #11CA56",
"`. c #30CB54",
"'. c #21D661",
"]. c #54D953",
"[. c #70CD4A",
"{. c #71E756",
"}. c #59D070",
"|. c #6EC774",
" X c #52EB7A",
".X c #77EA73",
"XX c #8B8A32",
"oX c #888A39",
"OX c #968639",
"+X c #AF8737",
"@X c #B8853B",
"#X c #C48539",
"$X c #D2953D",
"%X c #888846",
"&X c #928E4B",
"*X c #989848",
"=X c #B78846",
"-X c #B49845",
";X c #AD9452",
":X c #92AE53",
">X c #A8A957",
",X c #B7A558",
"<X c #83826B",
"1X c #838173",
"2X c #878679",
"3X c #AD9962",
"4X c #8CB26D",
"5X c #AFB169",
"6X c #C88B44",
"7X c #C99649",
"8X c #D49C48",
"9X c #C79C54",
"0X c #CB9852",
"qX c #C8A659",
"wX c #D1A952",
"eX c #D9A857",
"rX c #E3B458",
"tX c #C69D62",
"yX c #C7A765",
"uX c #C7B766",
"iX c #CFB26B",
"pX c #D9B568",
"aX c #D8B975",
"sX c #E3BB67",
"dX c #E1BF72",
"fX c #8BD254",
"gX c #A6DC58",
"hX c #8DE952",
"jX c #AAE757",
"kX c #8DCC6B",
"lX c #A9CE73",
"zX c #8FEA76",
"xX c #B1EE71",
"cX c #C9C479",
"vX c #D3C773",
"bX c #E6C775",
"nX c #EAC970",
"mX c #C1F169",
"MX c #74EB87",
"NX c #BCB98F",
"BX c #D5BA84",
"VX c #93C783",
"CX c #AACF8D",
"ZX c #99EB8D",
"AX c #B3F28D",
"SX c #D6CB87",
"DX c #E6D586",
"FX c #E7D28F",
"GX c #CEF78F",
"HX c #EAEC96",
"JX c #CFF9AB",
"KX c #ECECA8",
"LX c #ECFCCA",
"PX c #F4F9C8",
"IX c #F2F9CF",
"UX c #F9F9F5",
/* pixels */
"R R R R R R R R R R R R R R R R R ....R R R R >XKX*XE R ..*XDX*XR R R R R R R R R R R R R R R R R R R R R R R ",
"R R R R R R R R E R R R R R R R R R oXF.R R R Y ,XHXcXcXuXDXi.U R E ..F.R R R R R R R R R R R R R R R R R R R ",
"R R R R R R R ......R R R R R R oX..5XiX..E oX5XKXDX0Xa.#XwXrX,X..oXoXbXXX*XXXR R R E R R R R R R R R R R R R ",
"R R R R R R R E ..E R *XR R oXR ,XpXbXpXcXSXiXpXpX@X9 2 8 p.j.=XqXDXuXqXwXqXr.R R R R OXR ....R R R E R R R R ",
"R R R R R R R R R R XXvXR ..%X..>XaXaX0X0Xd.i.| rX3 0 9.w 2.a.D i.qX9X7X0X=XOXF.R E R uXe.%X%X .R R T R R  .R ",
"R R R R R R R R R R >XKXcXcX>XHX9X7Xs.5.A s u d $X^ t.3X3X5Xi.D z ` A L f.=X=XyX*XqXuXrX5. . .R R R R R  .%X .",
"R R R R R R R E R XXuXFXDXSXiX=Xw.A d C ) O.g B 8X>X4XQ.Q.!.4X:XOX_ i i u S t.=XqXbXrX8Xs...R E R R R R R  .R ",
"R R R R R R E *XcXDXaXg.p.j.p.A s u b Q.qX+X4X>X%X) = = s = - ' Q.K !.D.N u u S =X0X<.1.j.6XcXqXe.R R R R R R ",
"R R R R R R R E nXaX9.8 o w #Xu c [ 5XuXHXlXlXr.Q = 1 d.eXbX;X: E.' ( !.(.(.Z v FX3 . , 3.#X7X| U R R R R R R ",
"R R E R R R R +XrXh.8 9.h.6 8X{ 4XCXCXcX8XbX8XL = * 1 o > > 0 w ) { 1 *X>X).).).eX1 t.<.<.j.j.e.E R R R R R R ",
"R E R R R R R OX8Xh.w y.qXx.#X4XvXKXHXbX7X4.6.e 4 5 q <.q 0 q 0 Q.[ 1 p.wX5X|.|.$X~ f.q.=X7Xr.XXR E R R R R R ",
"R R R R R R E cXj.<.9X&X;X9Xw.7X6.z.FXPXpX0X1.8 2 3 0 0 0 0 0 / !.- > 0.6X7XuXkXOXj.t.x.aX<.K w.R R R R R R R ",
"R R R R R R lXpXs.= J w.5.A -Xl.pXPXaX3.H 3 w p.7 5 5 4 7 8.| D.s 1 2 e #X8X8X;X:X>X,X=XG # 9.z.r.R R R R R R ",
"R R R XXXX*XsXwX{ v ) i h >XsXrXFXp.H H 0 w p.G h i t t g q.G f S 4 1 3 <.p.d.0 K S !.4X^ p - j.6Xe.,XXXR R R ",
"R R R e.iXpX8XG b !.4X&X5XbXFXqX3.q q K S s.A # t t i % % S J : = % f D 0 <.p.0Xw.K Q CX] [ Z } 6Xj.7XY R R R ",
"R R ,X7XeXwXq.u Z ).>X,X0XbX0X9.K H G u = : s h l i C k g l # # g # O u G <.f.k.#Xj.2.CX) ! (.@.y.6Xp.p.r.E R ",
"R ..i.j.8X6Xd x (.5Xu.q.h.wXd.9.q.F s d s s u k k k C A.M.M.` y % % $ @ @ +.J 9X+X#X*X4Xs W W.W.] z.f.e 8.U R ",
"R R R 7X6X| i E.4XQ.o.&X+.OXwXK ] % d d h i a C i $ t l A.m.J.V i y u i b d 5XvX,Xy.Q.b * h B Y.Y.r.j.8.X.S.A.",
"R R E eX#Xd x (.4X&Xo.w 9.F.7XuX$.O d h u g z C m.m.m.n y p A.J.G.j k i d _ qX&X<.w r 1 o l k ! Y.O.7X-XS.T R ",
"R R OX7Xq.u [ &X|.t.* r K e =X$X+.O # @ x /.gXgXfXfX[.L.G.N.p j G.P.V $ { SXD * 1 > > 2 > 4 } 4 Y.).-X@XY R R ",
"R R +X7XF i +.*X3XK 2 < o o o 6 aX,X$ E.J.fX[.gXV.H.[.{.hXL.N.n n H.G.N ] 8._ f : 7 1 8 9 h.1.) Y.Y.OX#Xr.R R ",
"R E 6X#Xi v Q.>X8.w 1.2 1 : = N S _ M.[./.gXC.j m.n.n.n.V.zXjXH.V @.[.m.V u M.z i f 5 2.eX6.>.D x Y.$.6Xp.R R ",
"R ..eXr.i @.(.4X9.#X1.3 A f % Q t V J.M p j m.P.jXGXxXhXL.B.lXhXV.p ~.H.A.` A.A.a $ J @X,.8 2 g b W.E.#Xj.R R ",
"..OX#X| i W.).>Xa.z.>.0 F # - h a J.M.i j H.xXfX].].]..XGX{.R.GX[.M Y.kXjXg y J.i - +Xp.q q , K f _ W.@X6Xe. .",
"qXeXnX+.Z (.lXqX#X#X<.p.f @ @ @ M.^.i a [.mX[.`.{.xXAXzX.XJX].|.hXH.M ZXgXp $ :Xl ^ J 3 q 1.<.t.l M Y.uXrXp.9.",
"0X6Xg.7XuX}.:XeXpXj.p.w.% @ @ C A.a p fXhX[.K.xXJXAXKXKXJXAXAXzXGXH.m.AX[.p $ fXh q.f <.a.d.p.7.C N.SXyXh.p.<.",
"r.0.> X y.5X).>.:.l.2.K f f t A.` y J.fXkXN.{.AXZXPXLXIXIXJXJX.XGXV.m xXG.p E.C.g $ d @X$Xl.9.e m.*X~ o 2 9.<.",
"h.:.2 h./ 7X:X*Xu.w.1.2.# @ l S.g p /.xXY.L.xX.XKXPXIXUXIXJXJXzXxXV.m.xXG.y Q.C.N y g #XrX#X1.<.R.1./ f.K 4.7.",
"2.1.7 y.p.y.4X{ f _ 2.w.@ % l C.O a G.gXn.hXzXzXJXLXPXLXIXKXAXJXhXV.kXjXM.B V C.N N X.qXqX7Xg.4.R.0 w p.9.z.K ",
"<.a.8.( c.Q.{ &   - ! h.s d k B @ j N.fXn.jXzXhXJXJXLXLXLXJXZXGXL.~.AXP.a g M.C.vX;XqX+.4X4Xu.3.R.b <.J ,X7XK ",
"e p.eXdX9.[ ) : o o J +Xe.Q C b y M.N.~.m jXZX`.GXZXZXAXzX XGX{.H.AXxXm.a 4XkXg w.K 1 * + f ' F { U.P D sXp.8 ",
"<.e <.A o.[ D.Q q a.:.H L f S.b $ J.H.~.p hXAXR.{.JXJXZXJXHXhXV.}.xXV.a ^./.C C D.d G ~ 1 o = - : U.| 1 3.3 2 ",
"$.K 8 F Z c Q._ <.l.p.h.u.%.*X) ] k P.~.p L.jXzXT.`.{.hXhXL.V.kXxXG.n N C./.4X4XB i >X7 3 . & = ; F./ 7 8 ~ 7 ",
"2X$.p./ U.1 b O.t.f.f.c.5XHX,X,X7X_ J.kXy M.H.xXAX|.R.T.R.|.AXxXgXV y Z.:X/.!.{ B b qXp.<.> * - : 3 D 7 0.*.*.",
"v.;.9.a.M b + b ' } y.t.=X8.7 P 4 g A.fX@.p M H.jXgXkXGXxXfXL.m C $ D.:XJ.g ' I d 5X7XeXw 2 & f f X S 8 7.2X<X",
"b.b.x.z.' M c : ] W 5 8 e 8 4 V b $ C M.VXZ p n n.N.G.N.G.n.m y i [ /.:Xh @ h h F.pXnXj.8 2 ; f ; V b >.t.<X2X",
"-.-.$.g.r.U.Q ; + ^ t.7 1 o ^ v N O N E.` CXZ y N n p p Z C i C.).C.C.i d C S.' SXaXnX>.e 7 ~.m.n.B.5 7.$.%.<X",
"$.$.+.9.z.[ Z ' o   & & + 1 J } y i g ^.).C kX).).N C.W.fX/.lX^.J.` g u *XqX5X5XbXHXp.8 1.~._.I.n.x 9 K $. . .",
"-.v.NX0.z.-XR.V.W.o . . . > w q.o.i u b ` i l /./.).G.A.V A.A.$ % % B *X .| j.d.8X0X9 1. . XT.I.n.4 >.8 q.R R ",
"1X-.y.0.a.l.C.I.T.C.f . o > 1.w.j.%Xb ' i v $ ) C ^.^.v i @ O % A.I B e.OX;XpX9Xp.3.p.j.4.Z.U.n.Z.0.e 9 <.R R ",
"b.b.=./ 8 j.@XU.T.Y.B : o < 0 d.7X0XyX{ b D.^ +XpXu i C.J.:X:XS.S.I b F.3.q d.a.9 > 8 ! ] J T.Y.yXh.3 P R R R ",
"b.b.v.w.( 8.c.%XT.}.~.ZXF 2 > 9 j.rXeXpXuXF.oXcXr.h u % u u D.F.*X+.cXaXyXqX3., , K _ MXL D.T.lXtXt.K 5.R R R ",
"1Xb.-.+.<X&.f.7X:XzXR.~.).' 9 , 9 g.eXnXeX=X5XO.<.L d d h ) >X7X<.pXDXPXFXp.2 2 e E.|.~.`._.kXSX=XY ..E R R R ",
"-.-.&.X.<X1Xv.,XpX,X8.3 1 Q ! >.8 , e $X$Xy.!.S K 7XeXaXbXsXj.p.#XbXpXg.q , 9 q Z.] e 7.=X>XDX9Xe...R R R R R ",
"X.+.+. .+.+.+.OX8X6X5 S 6 1 [ ) 0 e 8.<.q K [ D q 2.nXKXKXyX] / p.e 9 2 e <.0 O.#.7 ~ S P 0X8X>XR R R R  . . .",
"*.%.&.X.&.-.<Xy.d.9.w p.0.; P  X/.' 3 p.2 3 B F 8 >.8Xa.3.:.O.O.3.0.q <.L C.E. X2.; j.h.p.j.a.s.R R R  .&.=.-.",
"-.-.*.X.=.1X2Xv.0.a.p.9.8.} r._.'. X}.] , > - ) 0 8 9 e <.<.;XO.o 2 <.E.4XMX'.T.p.S q.f.sX#X4.Y R R R  .=.1X1X",
"=.1Xv.X.&.2XaXeX9.1.7X7X,XdXO.T.T.T._.| C ] * f O.P G ! P x.5XS ) W.W o.W.T.I.I.e.8X=XDXaX9.1.6X-XR R  .v.1X2X",
"+.-.-.X.=.1Xb.x.2X( w c.;X0.h.^.T.I.T.C.! `.Y.+ f Q.4XlX5X:XF J ! 6 @.{ T.I.R.lXSX9.j.c.8.q.R Y Y R R R  .F.NX",
"-.;.=.X.&.-.2X2X2X*.5 8 8 K h.9XaXkX~.T.T._._.v & = b _ Q = o C.`.; S `.~.CXKXBXtXj.<.e J T R R R R R R R R F.",
"-.-.&. . .+.<X<X<XQ.q.7.$.J | y.c.yXaX;X^.R._._., X X X X o F _.`.R.E.%XaXaX;X&X .8.L 9.5.R R R R R R R R R R ",
"+.+.X.R R  . . . . .U K X. .R T L 8.f.c.=X=X=X| 3 & & 1 = & o S J 7.h.=Xf.w. . .X.R R s.E R R R R R R R R R R ",
"<X<X+.T R R R R R T  .( %.%. .R f.1.9 w ~ t.8.c.>.e * X X , , w e 8.} / 8.9.x.-.&. .R U R R R R R R R R R R R ",
"<X%. .T R R R R R R  .&.=.%. .R U T L 2. .+.&.#.8 9 7.9.e 2 5 &.-.-.X.q.v.v.v.b.-. .R R R R R R R R R R R R R ",
" . .R R R E R R R R R X.*.+.R R R R T L R R X.8.0.7 5 D ( ( e ( b.<XX.| v.$.b.2X<X .R R R R R R R R R R R R R "
};
