/* XPM */
static char *_9530bb804cc485af8997d594e4a74a2TX12TNpW0Zx4Rjn8[] = {
/* columns rows colors chars-per-pixel */
"55 55 115 2 ",
"   c None",
".  c #666D17",
"X  c #686F16",
"o  c #676E18",
"O  c #696E18",
"+  c #697017",
"@  c #6D721A",
"#  c #72751B",
"$  c #75781E",
"%  c #787B1F",
"&  c #6D6D2C",
"*  c #6F7225",
"=  c #747623",
"-  c #777A21",
";  c #797C21",
":  c #73752C",
">  c #76792D",
",  c #656631",
"<  c #686734",
"1  c #6B6A34",
"2  c #6A693D",
"3  c #747535",
"4  c #777836",
"5  c #73733D",
"6  c #777839",
"7  c #7A7B3E",
"8  c #615D46",
"9  c #676442",
"0  c #6E6C41",
"q  c #65614A",
"w  c #6A6749",
"e  c #6C694F",
"r  c #716F47",
"t  c #717046",
"y  c #777844",
"u  c #7A7B43",
"i  c #727148",
"p  c #7B7C4B",
"a  c #706C54",
"s  c #797754",
"d  c #7B7B52",
"f  c #73705C",
"g  c #7E7E5A",
"h  c #767364",
"j  c #787567",
"k  c #7E7E65",
"l  c #7A7769",
"z  c #7C7B6E",
"x  c #7E7D70",
"c  c #807F5B",
"v  c #817F6F",
"b  c #807F72",
"n  c #7E8125",
"m  c #7F803A",
"M  c #7C8241",
"N  c #7F8548",
"B  c #8B8426",
"V  c #9C8E2E",
"C  c #9F902F",
"Z  c #86813B",
"A  c #A89134",
"S  c #82834A",
"D  c #828352",
"F  c #8D8E56",
"G  c #80805C",
"H  c #8C8C5E",
"J  c #B48D40",
"K  c #848461",
"L  c #82816A",
"P  c #808068",
"I  c #84836A",
"U  c #82816F",
"Y  c #858D69",
"T  c #979365",
"R  c #9E976F",
"E  c #808073",
"W  c #818073",
"Q  c #818074",
"!  c #818075",
"~  c #838174",
"^  c #828075",
"/  c #838175",
"(  c #838275",
")  c #818076",
"_  c #828076",
"`  c #838176",
"'  c #848275",
"]  c #848277",
"[  c #878675",
"{  c #848278",
"}  c #858378",
"|  c #858379",
" . c #85837A",
".. c #878578",
"X. c #868479",
"o. c #878679",
"O. c #85847A",
"+. c #86847A",
"@. c #86847B",
"#. c #86857B",
"$. c #87857B",
"%. c #88877B",
"&. c #88867C",
"*. c #8A897E",
"=. c #8A887F",
"-. c #8D8B7E",
";. c #8E9679",
":. c #A99778",
">. c #A09F7E",
",. c #8B8A80",
"<. c #8C8A80",
"1. c #8C8A81",
"2. c #8D8B82",
"3. c #9C9F97",
"4. c #A49F86",
/* pixels */
"# # # # # # # # # # # # # # # # # # # # # # # # # # # # # # # # # # # # # # # # # # # # # # # # # # # # # # # ",
"# # # # # # # # # # # # # # # # # # # @ # # # # # # # # # # # # # # # # # # # # # # # # # # # # # # # # # # # ",
"# # # # # # # ; - ; # # # # # # # # # # # # # # # # # # # # # # # # # + @ # # # # # - # # # # # # # # # # # # ",
"# # # # # # # # ; # # # # # # $ # # # # # # # $ # # # # # # = # # # # # # # # # # # # # # # # # # # - # # # # ",
"# # # # # # # # # # # # # # # # # # # # # # # # # # # # # # # # # # # # # # $ N # # # # # T F # # # + # # # # ",
"# # # # # # # # # # # # # # # # # # # # # # # # # ; $ # # # # # # # # # # # # # # # # # # O # # # # # # # H # ",
"# # # # # # # # # # # # # # # # # # # # # # # # # # # # # # # # # # # # # # # # # # # # # # # # # # # # # # # ",
"# # # # # # # # # # # # # # # # # # # # # # # # # # # # # # # # # # # # # # # # # # # # # # # # # # # # # # # ",
"# # # # # # # # # # # # # # # # # # # # # # # # # # # # # # # # # # # # # # # # # # # # # # - ; # # # # # # # ",
"# # ; # # # # # # # # # # # # # # # @ # # # # # # # # # # # # # # # # # # # # Z - # # # # # J B # # # # # # # ",
"# - # # # # # # # # # # # # # # # # # # # + @ # # # # # # # R # # # # # # # # m # # # # # @ # # # - # # # # # ",
"# # # # # # # # # # # # # # # # # # # # # # # # # # # # # 3.:.# # # # # # # # # # # # # # # # # # # # # # # # ",
"# # # # # # # # $ - # # # # # # # # # # # # # # # # # # # # # # # # # $ # # # # # # - # # # # # # # # # # # # ",
"# # # # # # # # # # # # # # # # # # # # # # # # # # # # # # # # # # # # @ # # # # # # # # # # # # # # # # # # ",
"# # # # # # # # # # # # # # # # # # # # # # # # # # # # # # # # # # # # # n # # # # # # # # # # # # # # # # # ",
"# # # # # # # # # # # # # # # # # # # # # # # # # ; # # # # # # # # # # # ;.@ # # # # # # # # # # # # # # - # ",
"# # # # @ O # # # # # # # # # # # ; $ # # # # # # # # # # # # # # # # # # # # # # # # # # # # # # # # # # # # ",
"# # # # # # # # # # # # . # # # # # @ # # # # # # # # # # # # # # # # # # # # # n # # # # >.# # # # # # # # # ",
"# # # # # # # # n ; # # # # # # # # # # # # # # # # # # # J C # # # # # $ # # # # # # # 7 # # # # # # # # # # ",
"# # # # # # # # $ # # # # # # - # # # # # # # # # # # # # # # # # # # # Y # # # # # $ # # # # # # # # # # # # ",
"# # # # # # # # # # # # # # # # # # # # # # # # # # # # # # # # # # # # # # # # # # # # # # # # # # # # # # # ",
"# % # # # # # # # # # # # # # # # # # # # # # # # # # # # # # # # # # # # # # # # # # # # # # # # # # # # # # ",
"# # # # # # # # - # # $ $ # # # # # # $ # # # # # # # # # # # # # # # # A # # # # # # # # # # # # # # # # # # ",
"# # # # # # # # # # # # - # # # # # # # # # # # % + $ # # # # # # # # # # # # C # # # # # # # # # # # # # - # ",
"# $ # # # # # # # # - # # # # $ $ # # # # # # % # # # # - # # # # # # # # # # V # # - X # # # # # # # $ @ M # ",
"# @ $ # # # # # # # # # # # # $ # # # # # # # # # # # # 4.@ n # # # # # # # # # # # # # # # # # # # # # # # # ",
"# # # # + # # # # # # # - # # # # # # # # # # # # # # # # # * # # # # @ # # # $ + # # # # # # # # # # # # # # ",
"7 u u # y y = u u u # y y # # # # # p p # u u u # # # # # # # # # # # # # # # # # # # # # # # # # # # # # # # ",
"_ b b # z z _ h b b 7 z z g # # # -.o.o.= b b b # # # # # # # # # # # # # # # # # # # # # # # # # # # # # # # ",
"_ b b # z z _ b b b 7 z z g # # # -.o.o.= b b b # # # # # # # # # # # # # # $ # # # @ # # # n # # # # # # @ # ",
"h l l # h j 0 l l l : j h # # # # 1 z v # l h j # # # # # # # # # # # - # # # # # # # # # $ + # # # # # # # # ",
"%.o.o.# b b o.b b b u o.o.K # # # o.b b = z z z # # # # o.o.*.z z z # _ b o.b b b G _ _ u  .b b o.q b # b b _ ",
"%.o.o.# b b o.b b b u o.o.K # # # o.b b = z z z # # # # o.o.*.z z z = b b o.b b b t 2._ u b b b P b b # b b # ",
"%.o.o.# b b  .b b b u D o.K # # # o.b b = z z z # # # # o.o.*.z z z = b b o.z b b K _ 5 u b b b o.b 1 # E b _ ",
"k b b # b b 4 o.o.o.# b b = # # # = b # # b b b # # # # b b p b b b # z z = o.o.o.= b b @ 6 b b 4 z z # o.o.I ",
"_ b b # b b 5 o.o.o.7 b b G # # # o.b b = b b b # # # # b b ' b b b = z z _ o.o.o.G b b 7 b b b _ z z # : o.%.",
"_ b b # b b o.' o.o.7 b b d # # # o.b b = b b b # # # # b b ' b b b = z _ j o.o.o.G b b 7 z b b _ _ - # o.: 2.",
"9 , - # q q q # e e # q q # # # # # q q # q q q # # # # q q 1 q q q # 8 - # # e e # q # # - # q # # # # e - # ",
"_ b b # z z _ b b b u o.b G # # # _ z z = o.o.o.# # # # # # # # # # # # # # # # # # # # # # # # # # # # # # # ",
"_ b b ; z z _ b b b # b b G # # # _ z z = o.o.[ # # # # # # # # # # # # # # # # # # # # # # # # # ; # # # # # ",
"_ b b # z z q b b 7 u b b c # # # _ z z = o.# # # # # # # # # # # # # # # # # # # # # # # # # # # # @ # # # # ",
"v b b # o.o.K b b b # 7 z y # # # G b x = b g # # # # # b b P # # # # # # # y b b # # # # # # # # # # # # # # ",
"_ b b # o.o.,.s _ b - z z g # # # o.b b = b b b # # - # b b ' # # # # # # # b b b # # # # # # # # # # # # # # ",
"b b b # o.o.,.b # b 7 z z g # # # o.b b # b b b # # # # 2.b ' # # # # # # # b b b # # # # # # # n n # # # # # ",
"# & & # : : # & # & # & & # # # @ # & & - & & & # # # # # & * # # # # # # # & & - # # @ # # # # # # # # # # # ",
"x y b # b b o.o.b b 7 b b G # # # o.b b = z z z # # # # # # # # # # # # # # # @ - G b b 7 # # # # # # # b b _ ",
"x z l # b b o.b b b 7 b b 2 # # # # q b = z z z # # # # # # ; # # # # # # # # # # G b b 7 # # # # # # # b b _ ",
"U  . .# h &.*.o.o.o.3 &.# # # # # f &.& = :  . .# # # # # # # @ # # # # # # # # # i &.& # - # # # # # #  .&.' ",
"# b b # b b o.o.o.o.7 b b G # # # _ z z = o.o.o.# # # # # # # b b b # # o.-.# # #   # # # # # # # # # # # #   ",
"_ b b # b b o.o.o.o.7 b b G # # # _ z z = o.o.o.# # # # # # # b b b = o.# a # - # # # # # # # # # # # # # # # ",
"_ b z # # 1 o.o.o.S # h b G # # # _ l y # o.o.o.# # # # @ # # = b b = o.o.-.# # # # # # # # # # # # # # # # # ",
"> > # # # # # # # # # : # # # # # # # : # : : : # # # # # > @ # : : # : : # # # : # # # # # # # # # # # # # # ",
"%.o.r o $ # # # # + $ q d g # # # # @ # # b b b # # # # z z b b b b = b b o.k E b # # # # # # # # # # # # # # ",
"%.D @ @ # # # # # # # z z g # # # # # # # 1 b b # # # # z z b b b b = b b o.b b b # # # # # # # # # # # # # # ",
"# # # # # $ # # # # # # _ < # # # # # # # # # 9 # # # # _ _ # w o.o.# $ o.9 o.o.o.# # # # # # # # # # # # # # "
};
