/* XPM */
static char *_3420b67e6e348eddd97a03917eb8630RWWJVfrR3GuYdfgf[] = {
/* columns rows colors chars-per-pixel */
"55 55 254 2 ",
"   c #0B2B2D",
".  c #29563D",
"X  c #235B3D",
"o  c #31553D",
"O  c #4A563B",
"+  c #1D5449",
"@  c #295743",
"#  c #2F574E",
"$  c #19635D",
"%  c #28664A",
"&  c #376849",
"*  c #2D7544",
"=  c #37754B",
"-  c #266754",
";  c #376A55",
":  c #2C7657",
">  c #387956",
",  c #186A67",
"<  c #2F7468",
"1  c #377965",
"2  c #2A7977",
"3  c #455945",
"4  c #48674C",
"5  c #566B4D",
"6  c #46774B",
"7  c #476A54",
"8  c #467456",
"9  c #437B54",
"0  c #4C7D54",
"q  c #4C7B5B",
"w  c #557A58",
"e  c #67795A",
"r  c #717452",
"t  c #497B66",
"y  c #537B6C",
"u  c #687C64",
"i  c #787D64",
"p  c #877D56",
"a  c #3C835B",
"s  c #398559",
"d  c #3A8767",
"f  c #32886D",
"g  c #3B997A",
"h  c #468651",
"j  c #468757",
"k  c #4C8454",
"l  c #4C845B",
"z  c #4C8C5B",
"x  c #538C5C",
"c  c #588859",
"v  c #53925D",
"b  c #5A945C",
"n  c #65865C",
"m  c #7A835C",
"M  c #64945E",
"N  c #478766",
"B  c #4B8A63",
"V  c #538D63",
"C  c #598768",
"Z  c #4B9268",
"A  c #5D9463",
"S  c #589867",
"D  c #54946B",
"F  c #5C946B",
"G  c #498A75",
"H  c #578B76",
"J  c #499778",
"K  c #589974",
"L  c #638C63",
"P  c #688867",
"I  c #738464",
"U  c #788A69",
"Y  c #639464",
"T  c #629A66",
"R  c #699865",
"E  c #64956B",
"W  c #6B966A",
"Q  c #649C6B",
"!  c #6B9B6B",
"~  c #76946B",
"^  c #749D6D",
"/  c #678C73",
"(  c #7A8C72",
")  c #679774",
"_  c #6D9D73",
"`  c #779876",
"'  c #7C9D74",
"]  c #7C9B7B",
"[  c #5AA27C",
"{  c #6BA26D",
"}  c #76A26E",
"|  c #6CA373",
" . c #64A37B",
".. c #69A678",
"X. c #6BA57B",
"o. c #73A374",
"O. c #7BA274",
"+. c #78A975",
"@. c #74A57A",
"#. c #7BA47A",
"$. c #75A97B",
"%. c #7CAB7B",
"&. c #8D815B",
"*. c #878A6A",
"=. c #8E8C6C",
"-. c #86926C",
";. c #97936D",
":. c #879977",
">. c #969776",
",. c #9B9B7A",
"<. c #A0976F",
"1. c #A39C77",
"2. c #84A47B",
"3. c #88A579",
"4. c #83AB7D",
"5. c #97A279",
"6. c #9CA37E",
"7. c #87B17C",
"8. c #A5A27C",
"9. c #B2AA7F",
"0. c #1D988C",
"q. c #2F8A87",
"w. c #279889",
"e. c #3A988A",
"r. c #3B9C97",
"t. c #34A794",
"y. c #1CA8A1",
"u. c #35B2AC",
"i. c #469C85",
"p. c #4F948B",
"a. c #469796",
"s. c #669983",
"d. c #749486",
"f. c #4AA88A",
"g. c #59A687",
"h. c #48AA97",
"j. c #59AA95",
"k. c #57B39A",
"l. c #68A986",
"z. c #74AD84",
"x. c #7BAD82",
"c. c #77AA89",
"v. c #68B18C",
"b. c #78B188",
"n. c #7CB38B",
"m. c #69A996",
"M. c #79AB97",
"N. c #68B398",
"B. c #78B798",
"V. c #519FA2",
"C. c #49A9A8",
"Z. c #4AB3AA",
"A. c #5AB8A9",
"S. c #53B0B0",
"D. c #66B8A5",
"F. c #67B2AE",
"G. c #78BBA6",
"H. c #45C5BE",
"J. c #58C5BB",
"K. c #6AC1AF",
"L. c #78C2AA",
"P. c #65C6BB",
"I. c #76C6B7",
"U. c #50C9C4",
"Y. c #67C9C4",
"T. c #77CDC6",
"R. c #6BD3CF",
"E. c #78D2C7",
"W. c #7AD6D5",
"Q. c #869B84",
"!. c #8F9E88",
"~. c #A39D80",
"^. c #87A684",
"/. c #85AB82",
"(. c #8AAD83",
"). c #9DA483",
"_. c #95AA87",
"`. c #89B486",
"'. c #84B48B",
"]. c #8BB48B",
"[. c #97B58A",
"{. c #92B58C",
"}. c #8EAC98",
"|. c #88B897",
" X c #96B996",
".X c #9CBB94",
"XX c #A5A383",
"oX c #A7A887",
"OX c #ABAA85",
"+X c #ACAD8B",
"@X c #B3AA85",
"#X c #B1AD8B",
"$X c #A9B48C",
"%X c #B6B38D",
"&X c #AFAE92",
"*X c #ADB393",
"=X c #A7B997",
"-X c #B4B393",
";X c #B7B997",
":X c #BCBB9B",
">X c #88BBA5",
",X c #98B9A6",
"<X c #A1B8A5",
"1X c #B9BEA2",
"2X c #C4B28A",
"3X c #C2BB98",
"4X c #C1BFA1",
"5X c #8DC296",
"6X c #9AC29A",
"7X c #A6C39C",
"8X c #B8C29E",
"9X c #87C5A9",
"0X c #99C4A9",
"qX c #87C8B8",
"wX c #96CDB6",
"eX c #9AD2BE",
"rX c #A7C7A6",
"tX c #BBC5A5",
"yX c #A4CAB4",
"uX c #AFD3B4",
"iX c #C6C39D",
"pX c #D1C39E",
"aX c #C2C3A4",
"sX c #CBC7A7",
"dX c #C4CBAB",
"fX c #D3CCAA",
"gX c #D0CFB1",
"hX c #CAD5B6",
"jX c #D4D4B3",
"kX c #D8D8B9",
"lX c #E2DCBB",
"zX c #90CEC6",
"xX c #88D4C8",
"cX c #95D6C8",
"vX c #88DAD5",
"bX c #98DCD4",
"nX c #AADACA",
"mX c #BBDCC9",
"MX c #A6DFD5",
"NX c #8FE2DB",
"BX c #9AE2DC",
"VX c #B2E5DA",
"CX c #8DDFE1",
"ZX c #99E5E3",
"AX c #AFECE7",
"SX c #B5EAE7",
"DX c #D3DCC4",
"FX c #E2DFC2",
"GX c #D4EAD3",
"HX c #E4E3C8",
"JX c #E9EED5",
"KX c #CBF2EF",
"LX c #CBF5F4",
"PX c #ECF4EB",
/* pixels */
"d.PXJXHXkX;X:.JXJXJXFXkXhXhXHXFXjXjXlXkXsX_.hXkXHXHXlXkXkXjXiX3.D 5X0XSX9X5X'.dXkXjXkXgXsXsX:X:X:X*XiXfXpX2Xr ",
"<XPXkXfX8.n ( HXDXkXdXtXtX=XiXsX8XsXiX%X9.I hXgXsXsXsX3X%X5.I > F +.$.L.E.v.f.tXgX:XsX+XOXoX;.1.1.m 3X@X1.&.O ",
"<XHXgX:XP :.:.kXdXgXaXtX*X/.;X$XaX3X%X9.-.w jXaX:X:X%XOXOX#Xn & | @.| N.NXH.vXtX3X+X-X#XOX8.I m m OX@X8.<.p O ",
"=XFXpXU ] [.( gXdXdXaX;X_.#.[.8X:X-X@X:.L I 4X+X-X*X3X-XXX( % A { | z.D.SXLXZ.=X+X6.+XOX8.-.q 0 w +X1.;.&.r 3 ",
"=XfXU t /. X( dXaXtX*X^.4.^ _ =X$X8.~ w ^ e -X&X;X:X%XoX-.% V o.! v.D.J.AXxXP.}.).,.oX6.-.C = = 7 :.-.*.e 5 & ",
"_.[.l. X7X=X] tXtX8X*X^.O.#.#.3.:.~ W E L 5 -XaX:X#XOX>.% > | %.X.G.P.vXL.g.g ] $X*XoX6./ 9 0 h l Y c k 0 6 ; ",
"d.uXrXrX.X XU tX=X.X^.3.7.4.O._ o.o.Q ! ) 9 8X:X+X8.U 7 ; Q o.$.v.xXBX9Xl.K d I ;X+X,.~ w 0 6 h j x x 0 0 6 ; ",
"s.rX{.' 2.' 4 _.2.P I ~ ~ W P w Y V C Y D : ^.I 5 & @ . c L D K A.KXxXg.V B : e I e w ; w 8 = 9 > x 9 6 & 4 1 ",
"}.PXyXhXhX=X/ uX7X_.tX7X.X.X X X=X=XaX;Xx.c.yX'._ B _ {.`._.`.|.cXKXwX|.x.^ 3.).(.4.' _.3.O.W _ P 6.6.XX3X1.r ",
"}.GXuXhX;X/.H rX{.rX.X[.{.].{.=XtX1X*X[. X) qX'.@./.7.4.4.x.z.B.VX0Xn. .! O.W 2.o.@.7.^ M M S A (.:X-X@X,.;.5 ",
"|.VXDXuX(.x.H {.rX7X[.]./.'. X=X.X^. X=X(.` qXN.c.{.`.x.b.|.B.bXwXn.$.C } R E :._ #.o.b b S D z.3.+X>.,.XXp 4 ",
">XGXhXrXB.k.D.rX7X.X`.].'.|.n.x.=XtX;X[.(.) |.J.G.'.b.z.|.eXSXbXn.X.X.) b b x ` 2.%.o.S S S g.c.| P >.#X>.r 7 ",
">XGXeXqXBXbX>X6X6X{.$.'.b.|.'.|.tX*X*X_.4.) '.L.Y.B.B.L.VXcXqXD.l.D _ A v A B ] 4.o.{ Q D [ N.[ J _.oX1.=.e 7 ",
">XGXnXeX0X{.] 6X{.{.|.b.`.4.x. X[._.).3.o.) |.5XbXSXbXnX|.z.X.l.f.[ Q Q A A F :.| |  . .g.N. .K J _.>.;.e 4 t ",
">XnXyX6X{.{.] 7X X X].%./.#.'.'./.O.o.O.{ )  X9XMXuX X'. . .@.Q T X.o.T F T F ] @.z.l.N.N. .K K K :.~ e 7 4 t ",
"M.mX7X].{.`.` 6X6X|.$.^.].x.$./.! _ _ ^ _ H 0XvXmX X(.4.| K X.| _ _ Q F V T B ] X.v.I.xXl.F V F B ! q 8 q 4 y ",
"M.uX[.(.4.@.H 0X|.c.` ' ^ Q F C ) ) E W F 1 cXVX=X_.2.^ D h.l.Q F F V A D k d P K S.vXg._ E N N > c 0 7 w ; G ",
"M.hXtX1X3.:./ nXyX<X=X[._.2.3.' 3.] ^.] _ H VXmX;X_.C C D g.9X|.(./.2.' 2.` ( ] M.ZXnX=X[.2.) ~ c P 4 e e w 8 ",
"0XGXDXdX/.[.) 9XnXuX.X{.(.`.4.O.$.'./.@.l.m.GXhX:X$XN 9 W {.wXL.'.4.} ! ^ 2.W Q.N.nXrX_.2.^ _ M k k 0 n c 6 ; ",
"0XGXjXdX(.#.P ,XnX0X|.].].7.$.$.x.%.$.X.g.F.DXtXoXy - F O.7.|.xXB.x.o.o.} R V ] T.rX`.o._ ! F k > = 9 c 6 & 1 ",
"yXHXjX:X` W P rX0XcXN.'.4.`.z. .x.x.n.j.J.bX<X` ; > F +.+.7.`.B.L.B.z.$.$.Q Z s.xX].o.Q Y A z j > 6 Y k = X 1 ",
"0XkXsX*XW o.P .X XeXL.|./.x.l.l.l.m.D.J.cXG.].Q T @.$.%.%.%.%.x.B.K.L.N.n. .e.G.5X%.{ F F x j s = o.z = % . < ",
"rXkX:X:.' A C {.|.wX9Xn.z.X.l.j.P.vXcXcXcXD./.o.%.7.7.%.$.| $.| X.v.A.Y.D.N.C.bXn.$.Q v j j > l j b h * % q H ",
"0XjX+XU ~ Y P |.|.0X9XD.z.l.v.A.qXN.n.n.c.i. .%.%.%.%.%.x.b.z.z.l.l.v.Z.Y.Y.bXqXn.X.| V > d l s > k s > 0 w H ",
"0X8X` W ^ W C `.{.|.>XG.l.l.N.T.n.n.X.F  .G m.x.x.x.x.x.n.B.B.N.v.v.v.k.J.LXZXqXb. .K D B V 9 > : 9 l k 0 6 G ",
"M.n 6 ` 3.W 7 2.`.'.G.qXN.k.Y.D.l.K F ^.[.q j.g.c.z.b.b.N.qXMXbXbXxXcX9XG.9XY.L.g.[ J f C a = = : l = & U U d.",
">X$XgXfXsX-X/  X].c.I.MXqXG.D.d ' ] gXfX3Xu x.G.D.K.I.xXMXeX9Xn.X.l.z.$.o.=X|.F.N.g.G B E x B N % n n &X3XXX!.",
"B.dXjXsX3XoXy .Xn.c.zX9XM.$.K Y 7XdXsX:X-X5 3.3.K MXwX|.'.x.o.! M Y c A _.).c.p.L.g.l.X.! Y ) N 9 ;X*X#XXX;.Q.",
">XhXjXsX;X).8 T.I.L.9Xn.z.X.Y [.dXdXaX-X).I O.! V B.$.{ { R T b ! 2.=X;X:XoXQ.N vXS.g.X.E E F V L 1X-XOX1.=./ ",
"yXHXgXaX-X` G B.vXqXn.X.@.Q 8XgXaXaX4X*X+X( ^ V Q @.A A Q Q R 2.dXaXaX:X&XXX/ E N.E.A. .K K Z ` aX;XoXoX,.i Q.",
"yXjXsX,.oX_.J v.I.qXn.X.) =XdX1X1X4X:XoX@Xu F l $.v v A T Q O.dXaX:X+X&X( ( ] c [ Z.T.v.K J O.;XtX+XXX~.*.*.M.",
"yX*X#X-X).] q.G.9XbXB.[ ^._.oXtX:X-XoXOX1.w k | A v S A T R 8XtX+X).-.&X+X*.C n K D.vXD.j.K [.).+X+XXX>.=.i m.",
"yXaX3X#X:.J q.9XwXKXE. .4.O.[.*X-X*X&X1.-.# x A b S S T Q } dX;XoX-X-XXX>.u < w z.B.bXNXe.x.#.3.$X).).~.*.u m.",
"yXsX#X1.C , r.wXeXKXBXB.$.o.7.:.*X*XXX>.I @ k x b b { Q ! #.).-X:X&XXX>.*.8 + w b.B.cXLXh.X._ O.^.).XX*.i y a.",
"yXiX1.U - J j.wXxXLXU.k. .) | [.oXoX,.U q 7 Y b v z A T A W ;X:X#XXX,.=.u 7 y c z.G.xXAXy.f.) X.x.=X>.( e - S.",
"0X;XI @ l X.s.9XI.KXR.Z.v.[ Z $X6.:.I q c t Y x v A A A W aX;X-XXX,.=.I & & ; n  .N.I.KXu.h.J g.s._.` C # - V.",
",X>.% 9 E Q K B.L.xXSXJ.j.J l.oX:.t > c k t %.! ! A c n tX4X-XOX>.*.u - % & % w K v.A.E.ZXy.t.t.M.Q.C $ % : F.",
">X/ & l T F F v.N.A.W.ZXT.u.j.2./ : B z k q ' ! A Q c R :X-XXX>.*.e - , % % - L D [ h.Z.ZXR.U.y.M.H < $ = : F.",
"m.C q w w B . g.g.i.C.T.W.LXY.G 1 8 y w 0 o L C n w w 4 r e e 5 4 #   + o & - & B N G r.W.R.KXvXr.< $ : ; ; p.",
">XtX=X[._.3.s.,X>X XB.xXI.I.R.B.x.#.#.O.O.P =X{.7.O.:.:.2.M 6 & + . > c n L ) ).[.4.@.z.P.Y.Y.NXh.K C C P P M.",
">X7X`.4.4.X.h.wX X'.l.N.h.A.R.v.| { o.! ! P `.4.O.L ~ } } R 0 9 & ^.$X5.~ c N :.' _ | D i.0.t.W.t.J Z D V l m.",
">X7X`.%.$.A.qX X`.%.'.b.j.J.vXk. .| | Q Y / (.4.^ ` #.^ R c 0 8 [.aX*XoX6.P j ` ! E D | K e.y.CXy.f.J Z B N j.",
">X6X'.%.D.MXl./.4.x.|  .g.A.LXZ.l.l. .K D C (.$.b.O.O.^ Y c 9 ~ aX&XXX8.=.P 1 ~ Y V ) S D J t.SXU.y.e.J d d F.",
"G.5XB.I.zXl.G | o.| V K K j.xXBXZ.N.g.g.J G x.n.x.@.! Y b x x Y &X+X+X8.-.G , q B T S Z a d e.H.ZXu.u.t.w.w.A.",
"qXAXbXeXz.B C _ Q b v z D  .j.vXKXSXbXT.u.w.K.B.c.l.K Z v z S S W OX,.=.P 1 $ 8 { A z s s s J h.U.SXSXZXR.u.S.",
"G.eX>Xn._ Y C A b z z z F S K h.I.P.E.SXvXR.xXJ.A.k.f.[ D Z D D N :.*.u - - : w A V j s s s d f w.A.Y.Y.W.SXR.",
"B.`.+.! b ! w b z k h z z j B K [ g.f.t.W.R.9XD.E.bXU.u.f.i.g g J G t - = = : c z z a s s a s f g J g w.0.Z.SX",
"'.7.M b ^ M w b k h h 6 k h h z D D Z J i.vXE.G.|.B.D.xXR.T.xXP.T.P.0.f j > : L Z a d a > a a N d s d f f f F.",
"c.7.M n n c w R z l 9 k 6 6 = k x z j N d i.9Xb.x.@.X.x.z.X.) J f.Z.u.e.Z > f / Z N d > q 9 = > : a a : 1 > F.",
"s.~ 6 w w w o e 8 7 6 6 6 & = & 6 = & P ^.7 |.x.:.` ` ` ` ) P 1 d g C.W.Z.q.q.t G G G 8 c = % - - ; % % 8 / M.",
"}.=X;XjX3X8.I jX8X;X$X3.^ R b c x > :.gX3X*.1X*X:X3X:X-X#X8.~ - l N G u.eX|.B.|.hXtXaX+X_.^ A L > > : n kX:X,X",
"}.jX3X@X8.8.I 3XXX5.~ L Y Y 6 = > ~ iX@X;.i +X).XX~.1.1.=.u - @ & 9 V _ _.] F.<X-XoX).-.n C 0 = - % 9 aX;X1.M.",
"!.2X1.8.<.m 5 ;.*.U e n n 5 6 & c %X8.;.p 5 =.>.>.=.*.i r ; . % q C C ] C W C :.,.=.-.I e e 7 % + & 6.;X1.i G.",
"u p &.r 5 O @ 5 4 & & 4 & o % - =.*.e 5 4 # i e u w u y 1 $ $ $ 1 1 1 f H w < 7 I P u P y t < $ $ U ~.*.P C zX",
"# @ + + $ , 2 + $ $ $ , 2 2 q.2 2 2 e.r.r.r.2 q.e.e.r.S.S.C.C.a.a.r.r.F.C.S.F.q.r.C.C.C.S.S.V.V.a.p.a.a.V.F.y "
};
