/* XPM */
static char *_bb5103c7d6145b4d40c2a1ace2c41f31H49kWoPDEEXI4oz[] = {
/* columns rows colors chars-per-pixel */
"55 55 235 2 ",
"   c #09080E",
".  c #050A13",
"X  c #090C16",
"o  c #070F1B",
"O  c #0A0F19",
"+  c #170F17",
"@  c #0B1017",
"#  c #0D131D",
"$  c #13141D",
"%  c #1A161A",
"&  c #29181B",
"*  c #39151D",
"=  c #2B2F1C",
"-  c #0B1523",
";  c #0E1520",
":  c #111721",
">  c #141A23",
",  c #1A1D25",
"<  c #171E29",
"1  c #201836",
"2  c #1D2126",
"3  c #17212B",
"4  c #1C232C",
"5  c #112334",
"6  c #252427",
"7  c #23262C",
"8  c #25292E",
"9  c #29292B",
"0  c #382A29",
"q  c #36362A",
"w  c #292735",
"e  c #252B32",
"r  c #2A2D34",
"t  c #2D333B",
"y  c #37373A",
"u  c #32363C",
"i  c #3D3B3C",
"p  c #5D0F0B",
"a  c #4C1014",
"s  c #5B1C17",
"d  c #7A1408",
"f  c #6A1710",
"g  c #573417",
"h  c #732C16",
"j  c #451E2A",
"k  c #432729",
"l  c #42392E",
"z  c #513737",
"x  c #692A26",
"c  c #722D25",
"v  c #663E33",
"b  c #3E402F",
"n  c #4B491E",
"m  c #4F521E",
"M  c #585B1E",
"N  c #7D4019",
"B  c #6B5D1E",
"V  c #62651E",
"C  c #6C6D1D",
"Z  c #73691F",
"A  c #6E721B",
"S  c #72751B",
"D  c #75781E",
"F  c #78781E",
"G  c #595624",
"H  c #4E4F34",
"J  c #4A443B",
"K  c #6A562C",
"L  c #5D6528",
"P  c #676724",
"I  c #726B27",
"U  c #6D7225",
"Y  c #737624",
"T  c #767923",
"R  c #797C21",
"E  c #74762C",
"W  c #76792B",
"Q  c #797A2E",
"!  c #6D6C3D",
"~  c #766C36",
"^  c #747532",
"/  c #767833",
"(  c #7B7C32",
")  c #72733B",
"_  c #7A733B",
"`  c #77783B",
"'  c #797A3B",
"]  c #101C41",
"[  c #0F2E54",
"{  c #282F4A",
"}  c #353C45",
"|  c #3B3E42",
" . c #053768",
".. c #1A3063",
"X. c #043F75",
"o. c #423F40",
"O. c #3D4446",
"+. c #094372",
"@. c #2A4766",
"#. c #464649",
"$. c #534E49",
"%. c #58524D",
"&. c #4A4D52",
"*. c #5E5954",
"=. c #6D5348",
"-. c #695548",
";. c #6B6A46",
":. c #6C6A4D",
">. c #746948",
",. c #757645",
"<. c #797A44",
"1. c #7B7C4C",
"2. c #6C6856",
"3. c #716B55",
"4. c #726D5B",
"5. c #6E735F",
"6. c #747253",
"7. c #7C7C53",
"8. c #77755E",
"9. c #78765B",
"0. c #7C7C5D",
"q. c #4A5563",
"w. c #546364",
"e. c #7A7564",
"r. c #777862",
"t. c #7D7C64",
"y. c #7E7D6B",
"u. c #7F7E71",
"i. c #810E09",
"p. c #87160B",
"a. c #99190A",
"s. c #981D13",
"d. c #A51D0C",
"f. c #AF1D0E",
"g. c #97280C",
"h. c #AA270A",
"j. c #B92C0A",
"k. c #AB330E",
"l. c #B5360B",
"z. c #AE3213",
"x. c #8F352A",
"c. c #A63F27",
"v. c #C22906",
"b. c #C73809",
"n. c #D73C09",
"m. c #B2490E",
"M. c #8F4D33",
"N. c #925639",
"B. c #A75037",
"V. c #886537",
"C. c #8C7B3B",
"Z. c #CB470D",
"A. c #CD4E0F",
"S. c #D7470B",
"D. c #E64B08",
"F. c #E85A09",
"G. c #F85D08",
"H. c #D76910",
"J. c #EA6A0A",
"K. c #F56C0A",
"L. c #EE770D",
"P. c #E96B13",
"I. c #E87714",
"U. c #C65C25",
"Y. c #CD712E",
"T. c #9E5D49",
"R. c #B85345",
"E. c #827747",
"W. c #8C6A59",
"Q. c #976956",
"!. c #867357",
"~. c #957055",
"^. c #A8694F",
"/. c #AE7051",
"(. c #867E64",
"). c #817E6B",
"_. c #807F72",
"`. c #C25E44",
"'. c #D27054",
"]. c #E57C40",
"[. c #7E812E",
"{. c #7E8234",
"}. c #7F8053",
"|. c #8C8427",
" X c #8C8434",
".X c #EE8112",
"XX c #F78612",
"oX c #FD9312",
"OX c #E28C2F",
"+X c #868447",
"@X c #888653",
"#X c #81815B",
"$X c #9A8B50",
"%X c #B08F5D",
"&X c #828265",
"*X c #8C8567",
"=X c #83826C",
"-X c #998866",
";X c #838272",
":X c #868579",
">X c #89877A",
",X c #A98768",
"<X c #B58565",
"1X c #AD9672",
"2X c #AEA778",
"3X c #DD815D",
"4X c #E1805E",
"5X c #D78E6A",
"6X c #D1916C",
"7X c #CC9E77",
"8X c #E59871",
"9X c #CFA06B",
"0X c #EEA779",
"qX c #044584",
"wX c #065689",
"eX c #0B6B96",
"rX c #0679B2",
"tX c #1787B5",
"yX c #07A8D8",
"uX c #BCB695",
"iX c #ACB8A8",
"pX c #C09E8D",
"aX c #CFAD89",
"sX c #EBB187",
"dX c #E6B38A",
"fX c #EBB991",
"gX c #C3BEBE",
"hX c #C9C196",
"jX c #E9C28F",
"kX c #F8C999",
"lX c #D6C6A9",
"zX c #F0CFA7",
"xX c #FCD6A7",
"cX c #F6DBB2",
"vX c #F9E2B6",
/* pixels */
"S S S S S S S S S S S S S S S S S S S S S S S S S S S S S S S S S S S S S S S S S S S S S S S S S S S S S S S ",
"S S S S S S S S S S S S S S S S S S S S S S S S S S S S S S S S S S S S S S S S S S S S S S S S S S S S S S S ",
"S S S S S S S R R R S S S S S S S S S S S S S S S S S S S S S S S S S A A S S S S S D S S S S S S S S S S S S ",
"S S S S S S S D R D S S S S S S S S S S S S S S S S S S S S Y S S S S S S S S S S S S S S R R S S S D S S S S ",
"S S S S S S S S S S S S S S S S S S S S S S S S S S Y S S ( (.C S S S S S S R ( S S S S Y +X+XY S S A S S Y S ",
"S S S S S S S S S S S S S S S S S S S S S S S S S R 1XS +Xe.9 V S S S S S S S Y S S S S S Y Y S S S S S Y +XY ",
"S S S S S S S S S S S S S S S S S S S S S S G E.S E.1X-X*.7 7 M T E Y S S S S S S S S S S S S S S S S S S Y S ",
"S S S S S S S S S S S S S S S S S S S S S S l i -X4.J #.y 8 2 ;.!.E.2.C S S S S S S S S S S S S S S S S S S S ",
"S S S S S S S S S S S S S S S S S S Y S S ' #.r y 9 e u t r 2 6 7 9 9 A S S S D S S S S S S R R S S S S S S S ",
"S S D S S S S S S S S S S S S S S S H 1X@X-X$.2 7 , r t t r 9 $.*.7 q W  X@XU ( R S S S S F  X|.D S S S S S S ",
"S D S S S S S S S S S S S S S S S S q i 2.%.0 , > 4 e 7 8 | #.y , J %.%.o.q S Q D S S S S S F D S D S S S S S ",
"S S S S S S S S S S S S S S S S S S n 8 4 4 , > $ 3 4 r | O.t 3 , e 4 e 2 M S S S S S S S S S S S S S S S S S ",
"S S S S S S S S D D S S S S S S S Y P , > , e , > : 4 r } u , 4 8 7 : , q S S S S S D S S S S S S S S S S S S ",
"S S S S S S S S S S S S S S S S S H ,Xq $ 2 u , : # 4 e 7 2 t t 7 # # @ !.%XC.A S S S S S S S S S S S S S S S ",
"S S S S S S S S S S S S S S S S S M 2 < ; : , $ X ; 4 e t &.i *.: $ # < e J H S S S S S S S S S S S S S S S S ",
"S S S S S S S S S S S S S S S S S S = # ; 4 } , . # 4 t O.&.#.| $.%.< ; : r U S S S S S S S S S S S S S S D S ",
"S S S S A A S S S S S S S S S S S U b   O 7 O.7 # : 3 e u | u r e r 6 O > H S S S S S S S T S S S S S S S S S ",
"S S S S S S S S S S S S A S S S S n q : O 4 7 } , 7 8 3 > > : # X . O X 2 _ Y S R S S S W @XT S S S S S S S S ",
"S S S S S S S S R D S S S S S S S C = @ # ; 4 #.r t u | r r 7 , # > > 0 < i P S S S S S Q T S S S S S S S S S ",
"S S S S S S S S D S S S S S S D S S m % O . 4 t r } &.O.7 e r 3 : @ > 8 b P S S S S S S S S S S S S S S S S S ",
"S S S S S S S S S S S S S S S S S S P % X   > 3 , 7 e e 3 4 4 < : . . O 2 V S S S S S S S S S S S S S S S S S ",
"S D S S S S S S S S S S S S S S S S P n c a # > z -.< 3 < @ < > : O x.n P A S S S S S S S S S S S S S S S S S ",
"S S S S S S S S D S S S D S S S S S S S V.c.o : v uX, : > v % ; # * B.U |.D S D S S S S S S S S S S S S S S S ",
"S S S S S S S S S S S S D S S S S S S S A V.$ % *.+ -.$ ; @ % | @ 0 P S D S D |.D S S S S S S S S S S S S R S ",
"S S S S S S S S S S D S S S S S D S S S $XjX-.v gX5 -.7Xq - @.pX+ ~.hX{.S S D |.D S D A S S S S S S S S S ( S ",
"S S S S S S S S S S S S S S S S S S S A Y.XXH.s lXiXzXxXvX;XlXQ.p I.OX$XS S S D S S S S S S S S S S S S S S S ",
"S Y Y S A S S Y Y S S Y R S S S S S S C.Y.XXoXg.x aXvXxXvXcXQ.i.A.oX.X%XA S S D A S S S S S S S S S S S S S S ",
"<.<.<.Y ` <./ <.<.<.E ` <.Y S S S W <.<X].P.XXH.d.f T.1X<Xx d h..XK.P.6X' S S S S S S S S S S S S S S S S S S ",
").y.t./ 0.y.y.e.y.t.<.e.t.1.Y S Y &X).sX`.l.A.XXP.m.R.R.R.M.Z.H.L.j.c.4X2XS S S S S S S S S S S S S S S S S S ",
"_.u.t./ e.y.y.y.u.y.<.t.y.1.Y S Y *XlX0X8Xc m.J.L..X9XsXdXY.I.I.F.f M.0XjX2XD S S S A S S S R S S S S S S A S ",
"t.y.e.E 8.e.6.t.y.e.` r.r./ S S Y 1XkX'.N.4.h J.L.L.OXcXaXP.P.F.F.g B '.0XvX' Y Y Y Y Y Y W Y Y Y Y Y S Y Y Y ",
":X:X=X/ t.u.;Xu.u.y.1.=X;X#XY S ~ 7XkX3XK 2.a.F.F.J.P.<XU.P.F.F.j.c E T.sXkX<Xt.t.7.=X(.<.&Xt.t.).3.0.E 0.t.0.",
">X:X=X/ t._.:X_._.y.1.=X:X#XY A -.Q.7X=.^ r.h D.F.D.F.A.Z.S.D.D.b.!.` 2.^.7Xz e.y.9.:X=X1.)._._.=Xy.e./ t.y.` ",
":X:X=X/ t._.;X;X;X).1.#X;X#XY P k & % :.^ ).z s n.S.b.S.k.b.n.l.+ K _ t.i & 0 z =X#X).1.<.t.u._.;Xy.,.E y.}.y.",
").;Xy./ t.y.1.;X:X=X' t.)./ S $Xv & l ^ E 1Xf [ * d d.g.h.d f ] 1 /.@Xt.4.& k ^.).<.y.t./ <.y.y.7.y.0.E &X:X=X",
"_._.t./ t.y.1.;X:X;X1.y.).1.Y C.zXdXfX9.~ B.Z.h qX .] [ [ [ qX..j.k.N.t.1XfXfXdXy.0.y.y.<.t.u._.).y.0.E ` =X:X",
"y.y.0.E e.y.y.=X;X=X<.t.t.<.Y Z 0XN.Q.4.+XM.F.G.g.wXeXwX+.yX{ n.G.S.(.e.~.N.5X,X=X0.y.t.<.0.t.y.y.t.Q Y 0.<.=X",
":.;./ Y :.2.:.) 6.6.^ :.:.E S S Z ^ :.:./.p.A.G.B.yXw a a eXtXD.D.k.B.*XQ Y I >.>.E ! E Y T E ;.E Y S Y ,.Y Y ",
"y.y.0.E 8.y.y.y.y.t.<.y.y.7.Y S Y 0.y.4.j.a.p.Z.q.rXg.v.n.z rXx.k.p.b.N S S S Y Y S S S S S S S S S S S Y S S ",
";X_.y.( t.y.u.u._.t.` y.).7.Y S Y ).y.4.s.h.a.p...+.z.k.b.x qXj a.a.j.h S S S S S S S S S S S S S F S S S S S ",
";X_.t./ t.y.4.y.).1.<.t.y.7.Y S Y t.y.t.c d.a.d.[  .s Z K *  .j a.f.p.B S S S Y Y S S S S S S S S S S S S S S ",
"_._.t./ =X:X=Xy._.t.Q <.t.<.Y S Y }.y.t.>.p s.s.{ X.G Y 0.}  .s f.i.c Y S Y <.t.0.Y S S S S S S S S S S S S S ",
";X_.t./ =X:X>Xt.y.t./ e.y.7.Y S Y =X_.=XdXB.c =.O.X.H Y y.@. .G g x.'.uXS Y t._.t.Y S S S S S S S S S S S S S ",
"y.y.0.E &X;X;X0.` 0.<.0.e.1.Y S Y &X).jXkX'.=.t.Y L L Y &Xw.5.Y C B.5XcX2XY 0.y.0.Y S S S S S S R R S S S S S ",
"/ ) ) Y ` ` ` ) E ^ E ) ) E S S S / /.xXkX^.! ) S S S S Y ^ E S S B 8XxXfXI ^ ^ W Y Y Y S S S S S S S S Y Y Y ",
"e.1.0.E 0.y.=X=Xy.t.<.t.t.1.Y S Y !.^.dXkXW.t.0.Y S S S S S S S S C 5XkX8XI S S T 7.t.t.' S S S S S S Y 0.t.y.",
"y.y.e.E t.;X:X;X_.y.<.).t.) S S S ^ >./.<X3.y.t.Y S S S S S R S S S V.6XQ.S S S Y 7.).t.' S S S S S S Y t.;X;X",
"t.;X).E 8.:X>X:X:X;X<.=X` Y S S Y 6.y.>.I <.;X=XY S S S S S S Y Y Y A V.I Y S S Y #X&X) Y D S S S S S Y (.;X>X",
"` y.t./ t.;X:X:X:X;X1.y.t.1.Y S Y t.y.0.` &X:X=XY S S S S S Y 0.t.0.Y E #X#XY S [.hX XS S S S S S S S S Y {.uX",
"y.u.t.E 0.y.:X:X:X=X1.y.y.7.Y S Y ).y.e.` =X:X=XY S S S S S Y t.u.y.` #X' 6.Y D D [.D S S S S S S S S S S S [.",
"y.y.0.Y Y ) &X=X=X}.E 9.t.1.Y S Y 0.0.,.E &X=X&XY S S S S S S / t.t.` &X&X&XY S S S S S S S S S S S S S S S S ",
"' ' E S S S Y Y Y Y S ^ E E S S S Y Y Y Y ' ' ' S S S S Y E Y E ) ` Y ' ' / Y Y E S S S S S S S S S S S S S S ",
";X&X) A S S S S S A Y ;.1.1.Y S S S A S Y 0.y.0.Y S S Y 0.t.t.t.y.t.` t.y.=Xt.t.0.Y S S S S S S S S S S S S S ",
"=X1.U A S S S S S S Y 9.t.7.Y S S S S S S ) t.e.Y S S Y t.y.y.y._.y.` t._.;X_._.y.Y S S S S S S S S S S S S S ",
"Y Y S S S D S S S S S E t.! S S S S S S S S E ! Y S S Y y.y.^ :.;X=XE / ).3.;X:X=XY S S S S S S S S S S S S S "
};
