/* XPM */
static char *ec195b1d849e47eaf38793a4c5313b0efTteJPvkUR76ht6I[] = {
/* columns rows colors chars-per-pixel */
"55 55 211 2 ",
"   c #1F3F1F",
".  c #233D1D",
"X  c #192F2D",
"o  c #0F352D",
"O  c #173828",
"+  c #173732",
"@  c #133B35",
"#  c #143C3A",
"$  c #222A2A",
"%  c #2A292C",
"&  c #382B2E",
"*  c #24382A",
"=  c #243A32",
"-  c #3B3535",
";  c #543C2E",
":  c #422A31",
">  c #4E3636",
",  c #563434",
"<  c #523C3C",
"1  c #5E3B39",
"2  c #633936",
"3  c #6A3E38",
"4  c #2A431D",
"5  c #35481D",
"6  c #3F531D",
"7  c #1C4526",
"8  c #1D542E",
"9  c #184536",
"0  c #13443D",
"q  c #1A433C",
"w  c #1B5437",
"e  c #244322",
"r  c #244C25",
"t  c #2B4826",
"y  c #364824",
"u  c #25552A",
"i  c #2C5D2B",
"p  c #395623",
"a  c #23463B",
"s  c #33443A",
"d  c #215838",
"f  c #1F613A",
"g  c #2A602E",
"h  c #356229",
"j  c #296532",
"k  c #2C6B33",
"l  c #306A31",
"z  c #2A763B",
"x  c #2B783B",
"c  c #347B37",
"v  c #337A39",
"b  c #424D19",
"n  c #44541C",
"m  c #4D5B1C",
"M  c #58531F",
"N  c #535E1B",
"B  c #5D5B1B",
"V  c #635F1C",
"C  c #5F6217",
"Z  c #53611D",
"A  c #5D631A",
"S  c #606317",
"D  c #61641C",
"F  c #656B1B",
"G  c #6A6D1A",
"H  c #67701C",
"J  c #6D711B",
"K  c #72751B",
"L  c #75781E",
"P  c #78781E",
"I  c #5B442D",
"U  c #435C21",
"Y  c #4B5924",
"T  c #5C5B27",
"R  c #5A413E",
"E  c #5A5836",
"W  c #675A2D",
"Q  c #74443A",
"!  c #7B463A",
"~  c #7C4A3A",
"^  c #605535",
"/  c #7A5434",
"(  c #5D6125",
")  c #5F602A",
"_  c #626422",
"`  c #656922",
"'  c #6C6E23",
"]  c #63632C",
"[  c #686B2E",
"{  c #6E7127",
"}  c #737624",
"|  c #767922",
" . c #797C21",
".. c #74762C",
"X. c #76792D",
"o. c #676739",
"O. c #64643A",
"+. c #6F7036",
"@. c #747632",
"#. c #767833",
"$. c #7A7C33",
"%. c #73733C",
"&. c #77783A",
"*. c #787A3C",
"=. c #134341",
"-. c #144B45",
";. c #165444",
":. c #155249",
">. c #185A4A",
",. c #185D4B",
"<. c #1D6546",
"1. c #1B644D",
"2. c #1D6B4E",
"3. c #1F704F",
"4. c #1D6D50",
"5. c #1F7050",
"6. c #216B42",
"7. c #257643",
"8. c #21744E",
"9. c #247B4E",
"0. c #595847",
"q. c #525148",
"w. c #724D43",
"e. c #645548",
"r. c #596258",
"t. c #676547",
"y. c #6B6C43",
"u. c #66654E",
"i. c #6C6B4D",
"p. c #706E4E",
"a. c #737343",
"s. c #777843",
"d. c #797A44",
"f. c #77774D",
"g. c #7B7C4C",
"h. c #656554",
"j. c #676657",
"k. c #686654",
"l. c #6A6A53",
"z. c #6B6B5B",
"x. c #6E705A",
"c. c #747253",
"v. c #7C7C54",
"b. c #74745E",
"n. c #78775C",
"m. c #7C7B5D",
"M. c #6A6C60",
"N. c #706F61",
"B. c #767564",
"V. c #787764",
"C. c #7D7C64",
"Z. c #7E7D6B",
"A. c #7F7E71",
"S. c #824B3A",
"D. c #884E3D",
"F. c #8C523D",
"G. c #895543",
"H. c #935541",
"J. c #905942",
"K. c #9A5B44",
"L. c #A26248",
"P. c #807F63",
"I. c #807F6B",
"U. c #807F72",
"Y. c #2F833F",
"T. c #33843E",
"R. c #3F8B3C",
"E. c #47953D",
"W. c #7E812E",
"Q. c #7F8233",
"!. c #2C8443",
"~. c #2B8448",
"^. c #29844D",
"/. c #2C8B4C",
"(. c #328541",
"). c #338D44",
"_. c #2F904B",
"`. c #359245",
"'. c #3D9C47",
"]. c #32954B",
"[. c #359A4B",
"{. c #399E4A",
"}. c #3DA34C",
"|. c #429741",
" X c #7F8053",
".X c #44A346",
"XX c #49A544",
"oX c #4CAA47",
"OX c #41A74C",
"+X c #43AA4C",
"@X c #4BAE4A",
"#X c #47B04D",
"$X c #4BB34D",
"%X c #4FB84D",
"&X c #51B54A",
"*X c #52BC4E",
"=X c #56C14E",
"-X c #58C34F",
";X c #5AC44F",
":X c #8B8330",
">X c #848547",
",X c #808054",
"<X c #81815C",
"1X c #828164",
"2X c #83826C",
"3X c #838273",
"4X c #868578",
"5X c #88877A",
"6X c #8E8C7F",
"7X c #BDBF9D",
"8X c #C1C2A1",
/* pixels */
"K K K K K K K K K K K K K K K K K K K K K K K K K K K K K K K K K K K K K K K K K K K K K K K K K K K K K K K ",
"K K K K K K K K K K K K K K K K K K K K K K K K K K K K K K K K K K K K K K K K K K K K K K K K K K K K K K K ",
"K K K K K K K  . . .K K K K K K K K K K K K K K K K K K K K K K K K K J J K K K K K L K K K K K K K K K K K K ",
"K K K K K K K L  .L K K K K K K K K K K K K K K K K K K K K } K K K K K K K K K K K K K K  . .K K K L K K K K ",
"K K K K K K K K K K K K K K K K K K K K K K K K K K K K K K K K K K K K K K  .$.K K K K } >X>X} K K J K K } K ",
"K K K K K K K K K K K K K K K K K K K K K K K K K L G G K K K K K K K K K K K } K K K K K } } K K K K K } >X} ",
"K K K K K K K K K K K K K K K K J J H H H H H J G Z 4 n F G J K J J K K K K K K K K K K K K K K K K K K K } K ",
"K K K K K K K K K K K K K K K G Z n i i i p i U U k T.j u i U A m A J K K K K K K K K K K K K K K K K K K K K ",
"K K K K K K K K K K K K K K F n i r |..X).k x (.(.'.$X'.`..Xv i v g m G J K K L K K K K K K  . .K K K K K K K ",
"K K L K K K K K K K K K K F U i k Y.c &X$X@X$X}.OX*X=X$X%X&Xc ).'.k u h m F J $. .K K K K P :X:XL K K K K K K ",
"K L K K K K K K K K K K J Z h XX.X$X&X-X-X-X;X*X=X;X;X-X-X-X&X*X*XoXoXXX  4 n { K K K K K K P L K L K K K K K ",
"K K K K K K K K K K K J m r k XX$X=X;X;X;X;X;X;X;X;X;X;X;X;X;X;X;X-X-X&Xg T.k 5 Z F K K K K K K K K K K K K K ",
"K K K K K K K K L L K F . z )..X+X*X;X;X;X;X;X;X;X;X;X;X;X;X;X;X;X;X-X#X@X@Xz u k p H K K K K K K K K K K K K ",
"K K K K K K K K K K J N 7 8 (.+X*X*X*X;X;X;X;X;X;X;X;X;X;X;X;X;X;X;X;X=X=XoXc oX`.r A K K K K K K K K K K K K ",
"K K K K K K K K K K G 5 z !.!.}.+XOX$X;X;X;X;X;X;X;X;X;X;X;X;X;X;X;X;X;X-X*X&X*XT.7 6 F K K K K K K K K K K K ",
"K K K K K K K K K K G N r ).OX$X+X$X=X;X;X;X;X;X;X;X;X;X;X;X;X;X;X;X-X;X;X-X-X$X'.XXE.5 G K K K K K K K K L K ",
"K K K K J J K K K G m e z [.+XOX}.#X*X;X;X;X;X;X;X;X;X;X;X;X;X;X;X=X*X=X;X;X;X=X$X}.c 4 D | K K K K K K K K K ",
"K K K K K K K K J n k x u '.%X#X$X*X+X=X;X;X;X;X;X;X;X;X;X;X-X;X=X#X#X*X;X;X;X=X*X$X`.z p ,X| K K K K K K K K ",
"K K K K K K K K  .m i )..X*X*X*X=X;X=X;X;X-X-X;X;X;X;X;X;X-X%X*X#XOX}.+X*X*X*X+X+X+X).l Y } K K K K K K K K K ",
"K K K K K K K K J b O x [.+X=X-X;X;X;X;X=X$X%X*X;X;X;X;X;X;X*X+X+X+X{.[.}.}.}.'.+X'.u Z G K K K K K K K K K K ",
"K K K K K K K K J n l j [.*X*X*X-X;X;X-X*X+X+X+X=X;X;X;X;X;X-X=X*X#X}.[.'.$X$X}.#X$Xl h Z J K K K K K K K K K ",
"K L K K K K K K K A t z [.#X}.OX*X;X;X*X+X+X*X*X-X;X;X;X;X;X;X;X=X+X}.+X'.+X*X+X}.$X@XE.6 G K K K K K K K K K ",
"K K K K K K K K K A e 8 !.[.{.+X=X;X-X*X+X}.$X=X=X*X-X;X-X=X=X;X;X=X*X%X}.}.}.{.[.{.R.p F K K K K K K K K K K ",
"K K K K K K K K J n d f f _.}.*X-X=X=X#X'.+X*X*X+XOX*X=X$X+X#X=X;X;X-X*X$X$X}.[.].!.e A K K K K K K K K K  .K ",
"K K K K K K K K K F 5 O 6.].+X*X*X+X$X#X{.+X$XOX}.}.+X*X*XOX*X=X*X=X*X*X*XOX[.].!.8 O N J K K K K K K K K $.K ",
"K K K K K K K K K J A e !.].{.+X}.[.{.[.].[.'.+X$X}.{.}.+X'.+X+X}.#X+X+X*X#X[.].7.<.w 5 G K K K K K K K K K K ",
"K } } K J K K } } G 5 d ~.9.^.].].].].]././.].[.{.[.[.[.[.[.[.].].[.[.].[.].^./.!.6.e A K K K K K K K K K K K ",
"s.d.s.} &.s.@.s.d.%.Y a <.8././.9.^.]./.9./._./.].].].].].].]././.]./.9.^./.~.6.7 y A K K K K K K K K K K K K ",
"I.Z.C.@.m.Z.Z.V.Z.C.y.= o 9 2.3.8././.8.5.8.9./.]./.^.]././.]./.9.^./.8.3.3.2.1.0 * F K K K K K K K K K K K K ",
"U.A.C.@.V.Z.Z.Z.Z.Z.d.j.* 0 ;.>.2.2.2.1.4.4.3.^.^.8.9././.9.^.9.3.2.1.2.1.:.0 0 9 y F K K K  .K K K K K K J K ",
"V.Z.V...b.V.c.V.Z.V.&.b.0.O o ;.1.;.@ >.2.1.1.2.3.2.2.8.8.3.2.1.2.2.>.:.:.-.@ y ( ' } } } X.} } } } } K } } } ",
"4X4X2X#.C.A.3XA.A.Z.g.2XZ.t.t 9 9 @ 0 ;.,.,.1.,.2.,.>.1.1.,.1.>.-.>.:.# # q a 0.V.v.2XP.d.1XC.C.I.c.m...m.C.m.",
"5X4X2X#.C.U.4XU.U.Z.g.2X4Xv.` Z Y = o =.-.0 -.:.:.=.@ -.-.@ -.-.# + q 0 = r.M.Z.Z.n.4X2Xg.I.U.U.2XZ.V.@.C.Z.&.",
"4X4X2X#.C.U.3X3X3XI.g.<X3X,X} J } l.s q @ @ =.=.# $ % X X % $ # a q.y s z.Z.Z.U.2X<X2Xf.d.C.A.U.3XZ.a...Z.3XZ.",
"I.3XZ.#.Z.Z.g.3X4X2X&.C.2X#.K K K &.x.Y Y s + % & , > & & : , - q.k.[ x.V.d.2X4X2Xs.Z.C.@.f.Z.Z.v.V.m...1X4X2X",
"U.U.C.#.C.Z.g.3X4X3Xg.Z. Xg.} K } m.N.u.] j.r.< S.! 2 2 3 , ! < j.z.] k.M.V.3X4X4X XZ.Z.d.C.A.U.I.Z.m...*.2X4X",
"Z.Z.m...V.Z.Z.2X3X2Xf.C.Z.f.} G ` l.z.k.] k.j.< L.K.S.D.D.3 ! < j.j.] k.z.k.b.Z.2Xv.Z.C.d.m.C.Z.Z.C.X.} v.s.2X",
"i.y.#.} i.l.l.%.c.c.@.i.i...G S S ] 0.0.( 0.0.< K.F.! H.H.! S.> E E T E _ _ _ O.y...O...} | ..y...} K } a.} } ",
"Z.Z.m...n.V.Z.Z.Z.C.d.Z.Z.f.D S D i.j.k.] z.j.< ! ! S.K.H.S.S.; B D C C S S S C D G K K K K K K K K K K } K K ",
"3XU.Z.$.V.Z.A.A.U.C.#.Z.Z.i.D S _ z.z.k.] z.k.R S.Q 2 ~ Q S.D.I B S S S S S S S S S J K K K K K K P K K K K K ",
"3XU.C.#.C.Z.x.Z.I.g.s.C.B.y.D S D k.z.k.] k.^ J.H.! 2 3 , 2 F.J.I B C S S S S D D D G K K K K K K K K K K K K ",
"U.U.C.#.2X4X2XZ.U.C.X.d.z.O.D S D i.z.k.] e.w.H.D.2 Q G.2 > 1 F./ T B S S S O.l.i.D S K K K K K K K K K K K K ",
"3XU.C.#.2X4X5XC.Z.C.$.m.N.y.D S _ z.M.k.W e.G.Q I ; Q K.w.e.q./ / W B C S D l.z.k._ F K K K K K K K K K K K K ",
"Z.Z.m...1X3X3Xm.#.m.s.m.b.y.D S D l.z.l.] u.k.e.T M ; ~ G.e.u._ D S C S S D l.z.i.` J K K K K K  . .K K K K K ",
"@.%.%.} &.&.#.%...@...%.+.{ D C C ] ] ] _ ] E E S C B V _ T ( S S S S S S C T ) ` ' } } K K K K K K K K } } } ",
"V.f.m...m.Z.2X2XZ.C.d.C.C.f.G S D i.k.l.] u.j.u.D S S S S C S S S S S S S S C S ' g.C.C.*.K K K K K K } m.C.Z.",
"Z.Z.V...C.3X4X3XU.Z.f.I.C.%.J G D ] 0.u.] k.z.k.D S S S S S F S S S S S S S S G } v.I.C.*.K K K K K K } C.3X3X",
"C.3XI...n.4X5X4X4X3Xd.2X&.} K K ' i.z.O._ O.z.z._ S S S S S S A _ D D D ` ' G K } <X1X%.} L K K K K K } P.3X6X",
"&.Z.C.@.C.3X4X4X4X3Xg.Z.C.g.} K } C.Z.b.+.b.B.b._ S S S S S D l.z.l.' ..v.1X} K W.8X:XK K K K K K K K K } Q.7X",
"Z.A.C...m.Z.4X4X4X2Xg.Z.Z.v.} K } I.Z.V.#.2X4X2X' G G G G G ' m.Z.C.#.<Xs.c.} L L W.L K K K K K K K K K K K W.",
"Z.Z.m.} } %.1X2X2X X..n.C.g.} K } m.m.s...1X2X1X} K K K J K K @.C.C.#.1X1X1X} K K K K K K K K K K K K K K K K ",
"*.*...K K K } } } } K @.....K K K } } } } &.*.&.K K K K } ..} ..&.&.} &.*.#.} } ..K K K K K K K K K K K K K K ",
"3X1X%.H K K K K K J } y.g.g.} K K K J K } m.Z.m.} K K } m.V.C.C.Z.C.#.C.Z.2XC.C.m.} K K K K K K K K K K K K K ",
"2Xg.{ J K K K K K K } n.C.v.} K K K K K K %.C.V.} K K } V.Z.Z.Z.U.Z.#.C.U.3XU.U.Z.} K K K K K K K K K K K K K ",
"} } K K K L K K K K K ..C.%.K K K K K K K K ..O.} K K } Z.Z.#.p.3X2X..#.I.c.3X4X2X} K K K K K K K K K K K K K "
};
